<?xml version="1.0" encoding="utf-8"?>
<!-- Generator: Adobe Illustrator 17.1.0, SVG Export Plug-In . SVG Version: 6.00 Build 0)  -->
<!DOCTYPE svg PUBLIC "-//W3C//DTD SVG 1.1//EN" "http://www.w3.org/Graphics/SVG/1.1/DTD/svg11.dtd">
<svg version="1.1" id="Layer_1" xmlns="http://www.w3.org/2000/svg" xmlns:xlink="http://www.w3.org/1999/xlink" x="0px" y="0px"
	 viewBox="0 0 51 51" style="enable-background:new 0 0 51 51;" xml:space="preserve">
<rect x="-6" y="-6.9" style="display:none;fill:#FF7F66;" width="62.4" height="64.2"/>
<path style="display:none;fill:#FF7F66;" d="M-24.1-23.2v98.6h98.6v-98.6C74.5-23.2-24.1-23.2-24.1-23.2z M48.7,27L27.3,48.5
	c-0.5,0.5-1.1,0.8-1.8,0.8c-0.7,0-1.3-0.3-1.8-0.7L2.2,27c-1-1-1-2.6,0-3.6L23.7,2c0.5-0.5,1.1-0.8,1.8-0.8s1.3,0.3,1.8,0.8
	l21.5,21.5C49.8,24.4,49.8,26,48.7,27z"/>
<g>
	<path style="fill:#C96855;" d="M25.5,50.9c-1,0-2.1-0.4-2.8-1.2L1.2,28.3c-1.6-1.6-1.6-4.1,0-5.6L22.7,1.2C23.4,0.4,24.4,0,25.5,0
		s2.1,0.4,2.8,1.2l21.5,21.5c1.6,1.6,1.6,4.1,0,5.6L28.3,49.8C27.5,50.5,26.5,50.9,25.5,50.9z"/>
</g>
<g style="display:none;">
	<path style="display:inline;fill:#FFFFFF;" d="M11.4,28.4c-0.8,0-1.5-0.3-2.1-0.8c-0.5-0.5-0.8-1.3-0.8-2.1s0.3-1.5,0.8-2.1
		L23.4,9.3c0.5-0.5,1.3-0.8,2.1-0.8s1.5,0.3,2.1,0.8c0.5,0.5,0.8,1.3,0.8,2.1c0,0.8-0.3,1.5-0.8,2.1l-14.2,14
		C12.9,28.1,12.2,28.4,11.4,28.4z M25.5,10.7c-0.2,0-0.4,0.1-0.5,0.2L10.9,25c-0.1,0.1-0.2,0.3-0.2,0.5s0.1,0.4,0.2,0.5
		c0.3,0.3,0.8,0.3,1,0L26,12c0.1-0.1,0.2-0.3,0.2-0.5S26.1,11.1,26,11C25.8,10.8,25.7,10.7,25.5,10.7z"/>
</g>
<g style="display:none;">
	<path style="display:inline;fill:#FFFFFF;" d="M25.5,28.4c-1.6,0-2.9-1.3-2.9-2.9V11.4c0-1.6,1.3-2.9,2.9-2.9s2.9,1.3,2.9,2.9v14.1
		C28.4,27.1,27.1,28.4,25.5,28.4z M25.5,10.7c-0.4,0-0.7,0.3-0.7,0.7v14.1c0,0.4,0.3,0.7,0.7,0.7c0.4,0,0.7-0.3,0.7-0.7V11.4
		C26.2,11,25.9,10.7,25.5,10.7z"/>
</g>
<g style="display:none;">
	<path style="display:inline;fill:#FFFFFF;" d="M39.6,28.4H25.5c-1.6,0-2.9-1.3-2.9-2.9s1.3-2.9,2.9-2.9h14.1c1.6,0,2.9,1.3,2.9,2.9
		S41.1,28.4,39.6,28.4z M25.5,24.7c-0.4,0-0.7,0.3-0.7,0.7c0,0.4,0.3,0.7,0.7,0.7h14.1c0.4,0,0.7-0.3,0.7-0.7c0-0.4-0.3-0.7-0.7-0.7
		H25.5z"/>
</g>
<g style="display:none;">
	<path style="display:inline;fill:#FFFFFF;" d="M25.5,42.4c-0.8,0-1.5-0.3-2.1-0.8c-0.5-0.5-0.8-1.3-0.8-2.1s0.3-1.5,0.8-2.1
		l14.1-14.1c0.5-0.5,1.3-0.8,2.1-0.8s1.5,0.3,2.1,0.8c0.5,0.5,0.8,1.3,0.8,2.1s-0.3,1.5-0.8,2.1L27.5,41.6
		C27,42.1,26.2,42.4,25.5,42.4z M39.6,24.7c-0.2,0-0.4,0.1-0.5,0.2L25,39c-0.1,0.1-0.2,0.3-0.2,0.5s0.1,0.4,0.2,0.5
		c0.3,0.3,0.8,0.3,1,0l14.1-14c0.1-0.1,0.2-0.3,0.2-0.5s-0.1-0.4-0.2-0.5C39.9,24.8,39.7,24.7,39.6,24.7z"/>
</g>
</svg>
