<?xml version="1.0" encoding="utf-8"?>
<!-- Generator: Adobe Illustrator 17.1.0, SVG Export Plug-In . SVG Version: 6.00 Build 0)  -->
<!DOCTYPE svg PUBLIC "-//W3C//DTD SVG 1.1//EN" "http://www.w3.org/Graphics/SVG/1.1/DTD/svg11.dtd">
<svg version="1.1" id="Layer_1" xmlns="http://www.w3.org/2000/svg" xmlns:xlink="http://www.w3.org/1999/xlink" x="0px" y="0px"
	 viewBox="0 0 51 51" style="enable-background:new 0 0 51 51;" xml:space="preserve">
<rect x="9.357798" y="8.422018" style="display:none;fill:#FF7F66;" width="32.284405" height="33.220184"/>
<path style="fill:#FF7F66;" d="M0,0v51h51V0H0z M37.358398,25.623535L26.241211,36.741211
	c-0.15625,0.15625-0.368652,0.246094-0.582031,0.246094c-0.222656,0-0.412598-0.076172-0.563477-0.227539L13.978516,25.642578
	c-0.310547-0.310547-0.310547-0.835449,0-1.145996l11.117188-11.117188c0.156738-0.156738,0.369141-0.246582,0.582031-0.246582
	c0.225586,0,0.416016,0.080566,0.582031,0.246582l11.110352,11.110352C37.673828,24.805176,37.667969,25.313477,37.358398,25.623535
	z"/>
<g style="display:none;">
	<path style="display:inline;fill:#FFFFFF;" d="M25.659084,38.366974c-0.542751,0-1.06679-0.205875-1.459818-0.5989
		L13.082202,26.651009c-0.804771-0.804771-0.804771-2.114864,0-2.919634L24.199266,12.61431
		c0.393028-0.393026,0.89835-0.598898,1.459818-0.598898c0.561466,0,1.066788,0.205872,1.459816,0.598898l11.117065,11.117064
		c0.804771,0.80477,0.804771,2.114862,0,2.919634L27.118904,37.76807C26.725872,38.161098,26.201836,38.366974,25.659084,38.366974z
		 M25.659084,13.138348c-0.243303,0-0.486607,0.093578-0.655046,0.280734L13.886973,24.536148
		c-0.355597,0.355595-0.355597,0.954496,0,1.328808l11.117064,11.117062c0.16844,0.168442,0.411743,0.280735,0.655046,0.280735
		s0.486607-0.093578,0.655045-0.280735L37.43119,25.864956c0.355598-0.374311,0.355598-0.954496,0-1.328808L26.314129,13.419084
		C26.145687,13.231926,25.902384,13.138348,25.659084,13.138348z"/>
</g>
<g style="display:none;">
	<path style="display:inline;fill:#FFFFFF;" d="M18.378716,26.688442c-0.393028,0-0.76734-0.149727-1.06679-0.43046
		c-0.280733-0.280735-0.430458-0.655046-0.430458-1.066788c0-0.411743,0.149725-0.767342,0.430458-1.06679l7.280367-7.280367
		c0.280733-0.280733,0.655045-0.43046,1.066788-0.43046s0.767342,0.149727,1.066788,0.43046
		c0.280735,0.280733,0.43046,0.655046,0.43046,1.066788c0,0.393028-0.149725,0.76734-0.43046,1.06679l-7.280367,7.280367
		C19.16477,26.538715,18.790459,26.688442,18.378716,26.688442z M25.659084,17.536512
		c-0.093578,0-0.187157,0.037432-0.262018,0.112293l-7.280367,7.280369c-0.074863,0.07486-0.112293,0.168438-0.112293,0.262016
		s0.03743,0.187157,0.112293,0.262018c0.149725,0.149725,0.393026,0.149725,0.524036,0l7.280369-7.280369
		c0.07486-0.074862,0.112293-0.16844,0.112293-0.262018s-0.03743-0.187157-0.112293-0.262018
		C25.846239,17.57394,25.752661,17.536512,25.659084,17.536512z"/>
</g>
<g style="display:none;">
	<path style="display:inline;fill:#FFFFFF;" d="M25.659084,26.688442c-0.823486,0-1.497248-0.673763-1.497248-1.497248v-7.280369
		c0-0.823486,0.673761-1.497248,1.497248-1.497248c0.823484,0,1.497248,0.673761,1.497248,1.497248v7.280369
		C27.156332,26.014679,26.482569,26.688442,25.659084,26.688442z M25.659084,17.536512
		c-0.205873,0-0.374313,0.168442-0.374313,0.374313v7.280369c0,0.205872,0.16844,0.374311,0.374313,0.374311
		c0.205872,0,0.374311-0.16844,0.374311-0.374311v-7.280369C26.033396,17.704954,25.864954,17.536512,25.659084,17.536512z"/>
</g>
<g style="display:none;">
	<path style="display:inline;fill:#FFFFFF;" d="M32.939449,26.688442h-7.280365c-0.823486,0-1.497248-0.673763-1.497248-1.497248
		c0-0.823486,0.673761-1.497248,1.497248-1.497248h7.280365c0.823486,0,1.49725,0.673761,1.49725,1.497248
		C34.436699,26.014679,33.762936,26.688442,32.939449,26.688442z M25.659084,24.816881
		c-0.205873,0-0.374313,0.16844-0.374313,0.374313c0,0.205872,0.16844,0.374311,0.374313,0.374311h7.280365
		c0.205872,0,0.374313-0.16844,0.374313-0.374311c0-0.205873-0.168442-0.374313-0.374313-0.374313H25.659084z"/>
</g>
<g style="display:none;">
	<path style="display:inline;fill:#FFFFFF;" d="M25.659084,33.968807c-0.39303,0-0.767342-0.149727-1.06679-0.430458
		c-0.280733-0.280735-0.430458-0.655048-0.430458-1.066792c0-0.411739,0.149725-0.76734,0.430458-1.066786l7.280369-7.280369
		c0.280733-0.280735,0.655046-0.43046,1.06679-0.43046s0.767338,0.149725,1.066788,0.43046
		c0.280735,0.280733,0.430458,0.655045,0.430458,1.066788s-0.149723,0.76734-0.430458,1.066788l-7.280367,7.280367
		C26.445139,33.81908,26.052109,33.968807,25.659084,33.968807z M32.939449,24.816881
		c-0.093578,0-0.187157,0.037432-0.262016,0.112295l-7.280367,7.280365c-0.074862,0.074863-0.112295,0.168442-0.112295,0.262016
		c0,0.093578,0.037432,0.187157,0.112295,0.26202c0.149725,0.149723,0.393028,0.149723,0.524038,0l7.280369-7.280367
		c0.07486-0.074862,0.112293-0.16844,0.112293-0.262016c0-0.093578-0.03743-0.187157-0.112293-0.262018
		C33.126606,24.854313,33.033028,24.816881,32.939449,24.816881z"/>
</g>
</svg>
