<?xml version="1.0" encoding="utf-8"?>
<!-- Generator: Adobe Illustrator 17.1.0, SVG Export Plug-In . SVG Version: 6.00 Build 0)  -->
<!DOCTYPE svg PUBLIC "-//W3C//DTD SVG 1.1//EN" "http://www.w3.org/Graphics/SVG/1.1/DTD/svg11.dtd">
<svg version="1.1" id="Layer_1" xmlns="http://www.w3.org/2000/svg" xmlns:xlink="http://www.w3.org/1999/xlink" x="0px" y="0px"
	 viewBox="5 0 41.166668 51" style="enable-background:new 5 0 41.166668 51;" xml:space="preserve">
<polygon style="opacity:0.1;fill:#FFFFFF;" points="17.5,51 5,51 33.5,0 46,0 "/>
<rect x="-6.022339" y="-6.944681" style="display:none;fill:#FF7F66;" width="62.393612" height="64.202126"/>
<path style="display:none;fill:#FF7F66;" d="M-24.107447-23.221275v98.563828h98.563828v-98.563828H-24.107447z
	 M48.739365,27.019146L27.254257,48.504257c-0.470215,0.470211-1.121277,0.759575-1.80851,0.759575
	c-0.687235,0-1.302128-0.253189-1.772343-0.723404L2.188299,27.019146c-0.976596-0.976593-0.976596-2.604254,0-3.580851
	L23.673405,1.953191c0.470215-0.470213,1.121277-0.759574,1.808512-0.759574s1.302126,0.253191,1.80851,0.759574
	l21.485109,21.485106C49.752125,24.414892,49.752125,26.006382,48.739365,27.019146z"/>
<g style="display:none;">
	<path style="display:inline;fill:#FFFFFF;" d="M11.411703,28.357447c-0.759575,0-1.482979-0.289364-2.061702-0.831917
		c-0.542554-0.542553-0.831915-1.265957-0.831915-2.061701s0.289361-1.482977,0.831915-2.061701L23.420216,9.331916
		c0.542553-0.542553,1.265957-0.831915,2.061701-0.831915s1.482979,0.289362,2.061701,0.831915
		c0.542553,0.542553,0.831915,1.265957,0.831915,2.061702c0,0.759574-0.289362,1.482979-0.831915,2.061703L13.437235,27.52553
		C12.894682,28.068083,12.171277,28.357447,11.411703,28.357447z M25.481916,10.670213
		c-0.180851,0-0.361702,0.07234-0.506384,0.217021L10.90532,24.957445c-0.144681,0.144682-0.217022,0.325533-0.217022,0.506384
		s0.072341,0.361702,0.217022,0.506384c0.289361,0.289362,0.759574,0.289362,1.012765,0L25.988297,11.93617
		c0.144682-0.144681,0.217022-0.325532,0.217022-0.506383s-0.07234-0.361702-0.217022-0.506383
		C25.843616,10.778724,25.662767,10.670213,25.481916,10.670213z"/>
</g>
<g style="display:none;">
	<path style="display:inline;fill:#FFFFFF;" d="M25.481916,28.357447c-1.59149,0-2.893618-1.302128-2.893618-2.893618V11.393617
		c0-1.591489,1.302128-2.893617,2.893618-2.893617s2.893616,1.302128,2.893616,2.893617v14.070212
		C28.375532,27.055319,27.073402,28.357447,25.481916,28.357447z M25.481916,10.670213
		c-0.397873,0-0.723404,0.325531-0.723404,0.723404v14.070212c0,0.397873,0.325531,0.723404,0.723404,0.723404
		c0.397871,0,0.723404-0.325531,0.723404-0.723404V11.393617C26.20532,10.995744,25.879787,10.670213,25.481916,10.670213z"/>
</g>
<g style="display:none;">
	<path style="display:inline;fill:#FFFFFF;" d="M39.552128,28.357447H25.481916c-1.59149,0-2.893618-1.302128-2.893618-2.893618
		s1.302128-2.893616,2.893618-2.893616h14.070211c1.591492,0,2.89362,1.302126,2.89362,2.893616
		S41.143616,28.357447,39.552128,28.357447z M25.481916,24.740425c-0.397873,0-0.723404,0.325533-0.723404,0.723404
		c0,0.397873,0.325531,0.723404,0.723404,0.723404h14.070211c0.397873,0,0.723404-0.325531,0.723404-0.723404
		c0-0.397871-0.325531-0.723404-0.723404-0.723404H25.481916z"/>
</g>
<g style="display:none;">
	<path style="display:inline;fill:#FFFFFF;" d="M25.481916,42.427658c-0.759575,0-1.482979-0.28936-2.061701-0.831917
		c-0.542553-0.542553-0.831915-1.265957-0.831915-2.061699s0.289362-1.482979,0.831915-2.061703l14.070213-14.070211
		c0.542553-0.542553,1.265957-0.831915,2.061699-0.831915c0.795746,0,1.482979,0.289362,2.061703,0.831915
		c0.542553,0.542553,0.831917,1.265957,0.831917,2.061701s-0.289364,1.482979-0.831917,2.061701L27.507448,41.595741
		C26.964895,42.138298,26.241489,42.427658,25.481916,42.427658z M39.552128,24.740425
		c-0.180851,0-0.361702,0.07234-0.506386,0.21702L24.975531,39.02766c-0.144682,0.14468-0.217022,0.325531-0.217022,0.506382
		s0.07234,0.361702,0.217022,0.506382c0.289362,0.289364,0.759573,0.289364,1.012766,0L40.05851,25.970213
		c0.14468-0.144682,0.217022-0.325533,0.217022-0.506384s-0.072342-0.361702-0.217022-0.506384
		C39.91383,24.812765,39.732979,24.740425,39.552128,24.740425z"/>
</g>
</svg>
