<?xml version="1.0" encoding="utf-8"?>
<!-- Generator: Adobe Illustrator 17.1.0, SVG Export Plug-In . SVG Version: 6.00 Build 0)  -->
<!DOCTYPE svg PUBLIC "-//W3C//DTD SVG 1.1//EN" "http://www.w3.org/Graphics/SVG/1.1/DTD/svg11.dtd">
<svg version="1.1" id="Layer_1" xmlns="http://www.w3.org/2000/svg" xmlns:xlink="http://www.w3.org/1999/xlink" x="0px" y="0px"
	 viewBox="0 0 140.7 141" style="enable-background:new 0 0 140.7 141;" xml:space="preserve">
<rect x="-16.8" y="-19.2" style="display:none;fill:#FF7F66;" width="172.5" height="177.5"/>
<path style="display:none;fill:#FF7F66;" d="M-66.8-64.2v272.5h272.5V-64.2H-66.8z M134.6,74.7l-59.4,59.4c-1.3,1.3-3.1,2.1-5,2.1
	c-1.9,0-3.6-0.7-4.9-2L5.9,74.7c-2.7-2.7-2.7-7.2,0-9.9L65.3,5.4c1.3-1.3,3.1-2.1,5-2.1s3.6,0.7,5,2.1l59.4,59.4
	C137.4,67.5,137.4,71.9,134.6,74.7z"/>
<g>
	<path style="fill:#FFFFFF;" d="M70.3,140.8c-2.9,0-5.7-1.1-7.8-3.2L3.1,78.2c-4.3-4.3-4.3-11.3,0-15.6L62.5,3.3
		C64.6,1.2,67.3,0,70.3,0s5.7,1.1,7.8,3.2l59.4,59.4c4.3,4.3,4.3,11.3,0,15.6l-59.4,59.4C76,139.7,73.2,140.8,70.3,140.8z M70.3,6
		c-1.3,0-2.6,0.5-3.5,1.5L7.3,66.9c-1.9,1.9-1.9,5.1,0,7.1l59.4,59.4c0.9,0.9,2.2,1.5,3.5,1.5s2.6-0.5,3.5-1.5L133.2,74
		c1.9-2,1.9-5.1,0-7.1L73.8,7.5C72.9,6.6,71.6,6,70.3,6z"/>
</g>
<g style="display:none;">
	<path style="display:inline;fill:#FFFFFF;" d="M31.4,78.4c-2.1,0-4.1-0.8-5.7-2.3c-1.5-1.5-2.3-3.5-2.3-5.7s0.8-4.1,2.3-5.7
		l38.9-38.9c1.5-1.5,3.5-2.3,5.7-2.3s4.1,0.8,5.7,2.3c1.5,1.5,2.3,3.5,2.3,5.7c0,2.1-0.8,4.1-2.3,5.7L37,76.1
		C35.5,77.6,33.5,78.4,31.4,78.4z M70.3,29.5c-0.5,0-1,0.2-1.4,0.6L30,69c-0.4,0.4-0.6,0.9-0.6,1.4s0.2,1,0.6,1.4
		c0.8,0.8,2.1,0.8,2.8,0L71.7,33c0.4-0.4,0.6-0.9,0.6-1.4c0-0.5-0.2-1-0.6-1.4S70.8,29.5,70.3,29.5z"/>
</g>
<g style="display:none;">
	<path style="display:inline;fill:#FFFFFF;" d="M70.3,78.4c-4.4,0-8-3.6-8-8V31.5c0-4.4,3.6-8,8-8s8,3.6,8,8v38.9
		C78.3,74.8,74.7,78.4,70.3,78.4z M70.3,29.5c-1.1,0-2,0.9-2,2v38.9c0,1.1,0.9,2,2,2s2-0.9,2-2V31.5C72.3,30.4,71.4,29.5,70.3,29.5z
		"/>
</g>
<g style="display:none;">
	<path style="display:inline;fill:#FFFFFF;" d="M109.2,78.4H70.3c-4.4,0-8-3.6-8-8s3.6-8,8-8h38.9c4.4,0,8,3.6,8,8
		S113.6,78.4,109.2,78.4z M70.3,68.4c-1.1,0-2,0.9-2,2s0.9,2,2,2h38.9c1.1,0,2-0.9,2-2s-0.9-2-2-2H70.3z"/>
</g>
<g style="display:none;">
	<path style="display:inline;fill:#FFFFFF;" d="M70.3,117.3c-2.1,0-4.1-0.8-5.7-2.3c-1.5-1.5-2.3-3.5-2.3-5.7s0.8-4.1,2.3-5.7
		l38.9-38.9c1.5-1.5,3.5-2.3,5.7-2.3s4.1,0.8,5.7,2.3c1.5,1.5,2.3,3.5,2.3,5.7s-0.8,4.1-2.3,5.7L75.9,115
		C74.4,116.5,72.4,117.3,70.3,117.3z M109.2,68.4c-0.5,0-1,0.2-1.4,0.6l-38.9,38.9c-0.4,0.4-0.6,0.9-0.6,1.4s0.2,1,0.6,1.4
		c0.8,0.8,2.1,0.8,2.8,0l38.9-38.9c0.4-0.4,0.6-0.9,0.6-1.4s-0.2-1-0.6-1.4C110.2,68.6,109.7,68.4,109.2,68.4z"/>
</g>
<path style="fill:none;stroke:#231F20;stroke-width:6;stroke-miterlimit:10;" d="M-168.8,143.4c-3.1,3.1-8.2,3.1-11.3,0L-239.5,84
	c-3.1-3.1-3.1-8.2,0-11.3l59.4-59.4c3.1-3.1,8.2-3.1,11.3,0l59.4,59.4c3.1,3.1,3.1,8.2,0,11.3L-168.8,143.4z"/>
<path style="fill:none;stroke:#231F20;stroke-width:6;stroke-linecap:round;stroke-miterlimit:10;" d="M-209.8,81.9
	c-2,2-5.1,2-7.1,0l0,0c-2-2-2-5.1,0-7.1l38.9-38.9c2-2,5.1-2,7.1,0l0,0c2,2,2,5.1,0,7.1L-209.8,81.9z"/>
<path style="fill:none;stroke:#231F20;stroke-width:6;stroke-linecap:round;stroke-miterlimit:10;" d="M-169.4,78.3c0,2.8-2.2,5-5,5
	l0,0c-2.8,0-5-2.2-5-5V39.4c0-2.8,2.2-5,5-5l0,0c2.8,0,5,2.2,5,5V78.3z"/>
<path style="fill:none;stroke:#231F20;stroke-width:6;stroke-linecap:round;stroke-miterlimit:10;" d="M-174.4,73.3
	c-2.8,0-5,2.2-5,5l0,0c0,2.8,2.2,5,5,5h38.9c2.8,0,5-2.2,5-5l0,0c0-2.8-2.2-5-5-5H-174.4z"/>
<path style="fill:none;stroke:#231F20;stroke-width:6;stroke-linecap:round;stroke-miterlimit:10;" d="M-170.9,120.8
	c-2,2-5.1,2-7.1,0l0,0c-2-2-2-5.1,0-7.1l38.9-38.9c2-2,5.1-2,7.1,0l0,0c2,2,2,5.1,0,7.1L-170.9,120.8z"/>
<g>
	<path style="fill:#231F20;" d="M387.9,70.6l-59.4-59.4c-2.1-2.1-4.8-3.2-7.8-3.2c-2.9,0-5.7,1.1-7.8,3.2l-59.4,59.4
		c-4.3,4.3-4.3,11.3,0,15.6l59.4,59.4c2.1,2.1,4.8,3.2,7.8,3.2c2.9,0,5.7-1.1,7.8-3.2l59.4-59.4C392.2,81.8,392.2,74.8,387.9,70.6z
		 M383.7,81.9l-59.4,59.4c-0.9,0.9-2.2,1.5-3.5,1.5c-1.3,0-2.6-0.5-3.5-1.5l-59.4-59.4c-2-2-2-5.1,0-7.1l59.4-59.4
		c0.9-0.9,2.2-1.5,3.5-1.5c1.3,0,2.6,0.5,3.5,1.5l59.4,59.4C385.7,76.7,385.7,79.9,383.7,81.9z"/>
	<path style="fill:#231F20;" d="M367.6,79.3c0,0,0-0.1,0-0.1c0-0.3,0-0.5,0-0.8c0-0.3,0-0.5,0-0.8c0,0,0-0.1,0-0.1
		c0-0.2-0.1-0.5-0.1-0.7c0,0,0,0,0,0c-0.3-1.5-1.1-2.9-2.2-4c-1.1-1.1-2.5-1.9-4-2.2c0,0,0,0,0,0c-0.2,0-0.5-0.1-0.7-0.1
		c0,0-0.1,0-0.1,0c-0.3,0-0.5,0-0.8,0h-30.9V39.4c0-0.7-0.1-1.5-0.3-2.2c0,0,0-0.1,0-0.1c0-0.2-0.1-0.3-0.2-0.5
		c0-0.1-0.1-0.2-0.1-0.3c0-0.1-0.1-0.2-0.2-0.4c-0.1-0.1-0.1-0.2-0.2-0.4c0-0.1-0.1-0.2-0.1-0.2c-0.1-0.2-0.2-0.3-0.3-0.5
		c0,0,0-0.1-0.1-0.1c-0.3-0.4-0.6-0.8-0.9-1.1c-1.1-1.1-2.5-1.8-3.9-2.2c0,0-0.1,0-0.1,0c-0.2,0-0.4-0.1-0.6-0.1c-0.1,0-0.2,0-0.2,0
		c-0.2,0-0.4,0-0.5,0c-0.1,0-0.2,0-0.3,0c-0.1,0-0.2,0-0.2,0c-0.2,0-0.4,0-0.6,0c-0.1,0-0.1,0-0.2,0c-0.2,0-0.4,0.1-0.6,0.1
		c0,0,0,0-0.1,0c-1.5,0.3-2.9,1.1-4,2.2l-38.9,38.9c-1.5,1.5-2.3,3.5-2.3,5.7s0.8,4.1,2.3,5.7c1.5,1.5,3.5,2.3,5.7,2.3
		s4.1-0.8,5.7-2.3l25.2-25.2v19.6c0,4.4,3.6,8,8,8h19.6l-25.2,25.2c-3.1,3.1-3.1,8.2,0,11.3c1.5,1.5,3.5,2.3,5.7,2.3
		c2.1,0,4.1-0.8,5.7-2.3L365.3,84c1.1-1.1,1.9-2.5,2.2-4c0,0,0,0,0,0C367.5,79.7,367.6,79.5,367.6,79.3z M361.6,78.7
		C361.6,78.8,361.6,78.8,361.6,78.7c0,0.2-0.1,0.3-0.1,0.4c0,0,0,0,0,0c-0.3,0.7-1,1.2-1.8,1.2h-4.8l3.4-3.4
		c0.4-0.4,0.9-0.6,1.4-0.6c0.1,0,0.3,0,0.4,0c0,0,0,0,0.1,0c0.1,0,0.2,0.1,0.3,0.1c0,0,0,0,0,0c0.1,0,0.2,0.1,0.3,0.2
		c0.1,0,0.1,0.1,0.2,0.2c0.1,0.1,0.2,0.2,0.3,0.3c0,0,0.1,0.1,0.1,0.1c0.1,0.1,0.1,0.2,0.2,0.3c0,0,0,0,0,0c0,0.1,0.1,0.2,0.1,0.3
		c0,0,0,0,0,0.1c0,0.1,0,0.3,0,0.4S361.6,78.6,361.6,78.7z M322.2,40.9l-3.4,3.4v-4.8c0-0.8,0.5-1.5,1.2-1.8c0,0,0,0,0,0
		c0.1,0,0.2-0.1,0.3-0.1c0,0,0.1,0,0.1,0c0.1,0,0.2,0,0.3,0c0,0,0.1,0,0.1,0c0.1,0,0.1,0,0.2,0c0.1,0,0.2,0,0.2,0c0,0,0.1,0,0.1,0
		c0.1,0,0.2,0,0.2,0.1c0,0,0.1,0,0.1,0.1c0.1,0,0.2,0.1,0.2,0.1c0.1,0.1,0.2,0.1,0.2,0.2c0,0,0,0,0.1,0c0.1,0.1,0.2,0.2,0.2,0.3
		c0,0,0,0.1,0.1,0.1c0,0.1,0.1,0.1,0.1,0.2c0,0,0,0.1,0,0.1c0,0.1,0.1,0.2,0.1,0.3c0,0,0,0.1,0,0.1
		C322.8,39.7,322.7,40.4,322.2,40.9z M283.3,79.7c-0.8,0.8-2.1,0.8-2.8,0c-0.4-0.4-0.6-0.9-0.6-1.4s0.2-1,0.6-1.4l32.3-32.3v5.7
		L283.3,79.7z M322.8,48.8v21.6h-2c-0.7,0-1.4,0.1-2,0.3V52.8L322.8,48.8z M318.8,78.3c0-1.1,0.9-2,2-2h2v2c0,1.1-0.9,2-2,2
		S318.8,79.4,318.8,78.3z M328.5,80.3c0.2-0.6,0.3-1.3,0.3-2v-2h21.6l-4,4H328.5z M322.2,118.6c-0.8,0.8-2.1,0.8-2.8,0
		c-0.8-0.8-0.8-2,0-2.8l29.5-29.5h5.7L322.2,118.6z"/>
</g>
</svg>
