<?xml version="1.0" encoding="utf-8"?>
<!-- Generator: Adobe Illustrator 17.1.0, SVG Export Plug-In . SVG Version: 6.00 Build 0)  -->
<!DOCTYPE svg PUBLIC "-//W3C//DTD SVG 1.1//EN" "http://www.w3.org/Graphics/SVG/1.1/DTD/svg11.dtd">
<svg version="1.1" id="Layer_1" xmlns="http://www.w3.org/2000/svg" xmlns:xlink="http://www.w3.org/1999/xlink" x="0px" y="0px"
	 viewBox="0 0 51 51" style="enable-background:new 0 0 51 51;" xml:space="preserve">
<rect x="-6.022339" y="-6.944681" style="display:none;fill:#FF7F66;" width="62.393612" height="64.202126"/>
<path style="display:none;fill:#FF7F66;" d="M-24.107447-23.221275v98.563828h98.563828v-98.563828H-24.107447z
	 M48.739365,27.019146L27.254257,48.504257c-0.470215,0.470211-1.121277,0.759575-1.80851,0.759575
	c-0.687235,0-1.302128-0.253189-1.772343-0.723404L2.188299,27.019146c-0.976596-0.976593-0.976596-2.604254,0-3.580851
	L23.673405,1.953191c0.470215-0.470213,1.121277-0.759574,1.808512-0.759574s1.302126,0.253191,1.80851,0.759574
	l21.485109,21.485106C49.752125,24.414892,49.752125,26.006382,48.739365,27.019146z"/>
<g style="display:none;">
	<path style="display:inline;fill:#FFFFFF;" d="M11.411703,28.357447c-0.759575,0-1.482979-0.289364-2.061702-0.831917
		c-0.542554-0.542553-0.831915-1.265957-0.831915-2.061701s0.289361-1.482977,0.831915-2.061701L23.420216,9.331916
		c0.542553-0.542553,1.265957-0.831915,2.061701-0.831915s1.482979,0.289362,2.061701,0.831915
		c0.542553,0.542553,0.831915,1.265957,0.831915,2.061702c0,0.759574-0.289362,1.482979-0.831915,2.061703L13.437235,27.52553
		C12.894682,28.068083,12.171277,28.357447,11.411703,28.357447z M25.481916,10.670213
		c-0.180851,0-0.361702,0.07234-0.506384,0.217021L10.90532,24.957445c-0.144681,0.144682-0.217022,0.325533-0.217022,0.506384
		s0.072341,0.361702,0.217022,0.506384c0.289361,0.289362,0.759574,0.289362,1.012765,0L25.988297,11.93617
		c0.144682-0.144681,0.217022-0.325532,0.217022-0.506383s-0.07234-0.361702-0.217022-0.506383
		C25.843616,10.778724,25.662767,10.670213,25.481916,10.670213z"/>
</g>
<g style="display:none;">
	<path style="display:inline;fill:#FFFFFF;" d="M25.481916,28.357447c-1.59149,0-2.893618-1.302128-2.893618-2.893618V11.393617
		c0-1.591489,1.302128-2.893617,2.893618-2.893617s2.893616,1.302128,2.893616,2.893617v14.070212
		C28.375532,27.055319,27.073402,28.357447,25.481916,28.357447z M25.481916,10.670213
		c-0.397873,0-0.723404,0.325531-0.723404,0.723404v14.070212c0,0.397873,0.325531,0.723404,0.723404,0.723404
		c0.397871,0,0.723404-0.325531,0.723404-0.723404V11.393617C26.20532,10.995744,25.879787,10.670213,25.481916,10.670213z"/>
</g>
<g style="display:none;">
	<path style="display:inline;fill:#FFFFFF;" d="M39.552128,28.357447H25.481916c-1.59149,0-2.893618-1.302128-2.893618-2.893618
		s1.302128-2.893616,2.893618-2.893616h14.070211c1.591492,0,2.89362,1.302126,2.89362,2.893616
		S41.143616,28.357447,39.552128,28.357447z M25.481916,24.740425c-0.397873,0-0.723404,0.325533-0.723404,0.723404
		c0,0.397873,0.325531,0.723404,0.723404,0.723404h14.070211c0.397873,0,0.723404-0.325531,0.723404-0.723404
		c0-0.397871-0.325531-0.723404-0.723404-0.723404H25.481916z"/>
</g>
<g style="display:none;">
	<path style="display:inline;fill:#FFFFFF;" d="M25.481916,42.427658c-0.759575,0-1.482979-0.28936-2.061701-0.831917
		c-0.542553-0.542553-0.831915-1.265957-0.831915-2.061699s0.289362-1.482979,0.831915-2.061703l14.070213-14.070211
		c0.542553-0.542553,1.265957-0.831915,2.061699-0.831915c0.795746,0,1.482979,0.289362,2.061703,0.831915
		c0.542553,0.542553,0.831917,1.265957,0.831917,2.061701s-0.289364,1.482979-0.831917,2.061701L27.507448,41.595741
		C26.964895,42.138298,26.241489,42.427658,25.481916,42.427658z M39.552128,24.740425
		c-0.180851,0-0.361702,0.07234-0.506386,0.21702L24.975531,39.02766c-0.144682,0.14468-0.217022,0.325531-0.217022,0.506382
		s0.07234,0.361702,0.217022,0.506382c0.289362,0.289364,0.759573,0.289364,1.012766,0L40.05851,25.970213
		c0.14468-0.144682,0.217022-0.325533,0.217022-0.506384s-0.072342-0.361702-0.217022-0.506384
		C39.91383,24.812765,39.732979,24.740425,39.552128,24.740425z"/>
</g>
<g>
	<path style="fill:#FFFFFF;" d="M49.788284,22.642551L28.303181,1.157446c-0.759577-0.759575-1.736166-1.157447-2.821272-1.157447
		c-1.048935,0-2.061707,0.397872-2.821274,1.157447L1.175532,22.642551c-1.55532,1.555321-1.55532,4.087234,0,5.642553
		l21.485102,21.485109c0.759577,0.759575,1.736166,1.157444,2.821274,1.157444c1.048933,0,2.061707-0.397873,2.821272-1.157444
		l21.485104-21.485107C51.343609,26.693617,51.343609,24.161703,49.788284,22.642551z M48.269142,26.729786L26.784039,48.214893
		c-0.325531,0.325531-0.79575,0.542553-1.265959,0.542553c-0.470207,0-0.940428-0.180851-1.265957-0.542553L2.76702,26.729786
		c-0.723404-0.723404-0.723404-1.844679,0-2.568083L24.252123,2.676596c0.325529-0.325532,0.79575-0.542553,1.265957-0.542553
		c0.470209,0,0.940428,0.180851,1.265959,0.542553l21.485104,21.485107
		C48.992546,24.848934,48.992546,26.006382,48.269142,26.729786z"/>
	<path style="fill:#FFFFFF;" d="M42.445736,25.789362v-0.036169c0-0.108513,0-0.180851,0-0.289364c0-0.108511,0-0.180851,0-0.289362
		v-0.036171c0-0.072338-0.036175-0.180851-0.036175-0.253189l0,0c-0.108505-0.542553-0.397873-1.048937-0.795746-1.44681
		c-0.397877-0.397871-0.904259-0.687233-1.446812-0.795742l0,0c-0.072342,0-0.180851-0.036171-0.253193-0.036171h-0.036175
		c-0.108505,0-0.180851,0-0.289356,0H28.411686V11.357447c0-0.253192-0.036173-0.542553-0.108505-0.795745v-0.036169
		c0-0.072341-0.036173-0.108511-0.072346-0.180851c0-0.03617-0.036173-0.072341-0.036173-0.108511
		c0-0.036169-0.036171-0.072341-0.072344-0.144681c-0.036173-0.03617-0.036173-0.072341-0.072346-0.144682
		c0-0.036169-0.036171-0.07234-0.036171-0.07234c-0.036173-0.072341-0.072346-0.108511-0.108507-0.180852
		c0,0,0-0.036169-0.036173-0.036169c-0.108505-0.144682-0.217024-0.289362-0.325529-0.397872
		c-0.397875-0.397872-0.904255-0.651064-1.410637-0.795745h-0.036171c-0.072346,0-0.14468-0.03617-0.217024-0.03617
		c-0.036173,0-0.072346,0-0.072346,0c-0.072344,0-0.144678,0-0.180851,0c-0.036171,0-0.072344,0-0.108505,0
		c-0.036173,0-0.072346,0-0.072346,0c-0.072344,0-0.144678,0-0.217024,0c-0.036171,0-0.036171,0-0.072344,0
		c-0.072346,0-0.144678,0.03617-0.217024,0.03617c0,0,0,0-0.036173,0c-0.542553,0.10851-1.048933,0.397872-1.446808,0.795745
		L9.38613,23.329786c-0.542553,0.542553-0.83191,1.265957-0.83191,2.061701s0.289357,1.482979,0.83191,2.061701
		c0.542554,0.542553,1.265958,0.831917,2.061707,0.831917c0.79575,0,1.482982-0.289364,2.061707-0.831917l9.114898-9.114893
		v7.089361c0,1.59149,1.30213,2.893618,2.893618,2.893618h7.089363l-9.114897,9.114895
		c-1.121279,1.121277-1.121279,2.965958,0,4.087234c0.542553,0.542553,1.265957,0.831917,2.061707,0.831917
		c0.759575,0,1.482981-0.289364,2.061705-0.831917l13.997879-14.034042c0.397873-0.397871,0.687229-0.904255,0.795746-1.446808l0,0
		C42.409561,25.93404,42.445736,25.861702,42.445736,25.789362z M40.275524,25.572338
		C40.275524,25.608511,40.275524,25.608511,40.275524,25.572338c0,0.07234-0.036175,0.108513-0.036175,0.144682l0,0
		c-0.108505,0.253191-0.361702,0.434042-0.651058,0.434042h-1.736168l1.229786-1.229788
		c0.14468-0.144682,0.325531-0.217022,0.506382-0.217022c0.036171,0,0.108505,0,0.144676,0c0,0,0,0,0.036175,0
		c0.036171,0,0.072346,0.036171,0.108505,0.036171l0,0c0.036171,0,0.072346,0.036169,0.108505,0.072338
		c0.036175,0,0.036175,0.036171,0.072346,0.07234s0.072346,0.072338,0.108505,0.108511l0.036175,0.036171
		c0.036171,0.036169,0.036171,0.072338,0.072346,0.108511l0,0c0,0.036169,0.036171,0.07234,0.036171,0.108511c0,0,0,0,0,0.036171
		c0,0.036169,0,0.108511,0,0.14468C40.311695,25.463827,40.275524,25.536169,40.275524,25.572338z M26.024462,11.900001
		l-1.229786,1.229787v-1.73617c0-0.289361,0.180851-0.542553,0.434048-0.651063l0,0c0.036173,0,0.072344-0.03617,0.108505-0.03617
		h0.036173c0.036173,0,0.072346,0,0.108507,0h0.036171c0.036173,0,0.036173,0,0.072346,0s0.072344,0,0.072344,0h0.036173
		c0.036173,0,0.072346,0,0.072346,0.03617c0,0,0.036171,0,0.036171,0.036169c0.036173,0,0.072346,0.03617,0.072346,0.03617
		c0.036173,0.03617,0.072346,0.03617,0.072346,0.072341c0,0,0,0,0.036171,0c0.036173,0.036169,0.072346,0.07234,0.072346,0.10851
		c0,0,0,0.03617,0.036173,0.03617c0,0.036169,0.036171,0.036169,0.036171,0.07234v0.03617
		c0,0.03617,0.036173,0.072341,0.036173,0.10851v0.03617C26.241474,11.465958,26.205313,11.719149,26.024462,11.900001z
		 M11.95424,25.93404c-0.289357,0.289364-0.759577,0.289364-1.012761,0c-0.144679-0.14468-0.217024-0.325533-0.217024-0.506384
		s0.072345-0.361702,0.217024-0.506382l11.682974-11.682979v2.061702L11.95424,25.93404z M26.241474,14.757446v7.812767H25.51807
		c-0.253197,0-0.506382,0.036169-0.723406,0.108511v-6.47447L26.241474,14.757446z M24.794664,25.42766
		c0-0.397873,0.325531-0.723404,0.723406-0.723404h0.723404v0.723404c0,0.397871-0.325531,0.723404-0.723404,0.723404
		C25.120195,26.151064,24.794664,25.825531,24.794664,25.42766z M28.303181,26.151064
		c0.072344-0.21702,0.108505-0.470213,0.108505-0.723404v-0.723404h7.812767l-1.446808,1.446808H28.303181z M26.024462,40.004253
		c-0.289358,0.289364-0.759577,0.289364-1.012762,0c-0.289358-0.289364-0.289358-0.723404,0-1.012768l10.670212-10.670212h2.061707
		L26.024462,40.004253z"/>
</g>
</svg>
