<?xml version="1.0" encoding="utf-8"?>
<!-- Generator: Adobe Illustrator 17.1.0, SVG Export Plug-In . SVG Version: 6.00 Build 0)  -->
<!DOCTYPE svg PUBLIC "-//W3C//DTD SVG 1.1//EN" "http://www.w3.org/Graphics/SVG/1.1/DTD/svg11.dtd">
<svg version="1.1" id="Layer_1" xmlns="http://www.w3.org/2000/svg" xmlns:xlink="http://www.w3.org/1999/xlink" x="0px" y="0px"
	 viewBox="19.6 0 11.6 51" style="enable-background:new 19.6 0 11.6 51;" xml:space="preserve">
<rect x="126.8" y="82.3" style="fill:#FF7F66;" width="123.7" height="127.3"/>
<path style="display:none;fill:#FF7F66;" d="M90.9,50.1v195.5h195.5V50.1H90.9z M235.4,149.7l-42.6,42.6c-0.9,0.9-2.2,1.5-3.6,1.5
	s-2.6-0.5-3.5-1.4l-42.6-42.6c-1.9-1.9-1.9-5.2,0-7.1l42.6-42.6c0.9-0.9,2.2-1.5,3.6-1.5s2.6,0.5,3.6,1.5l42.6,42.6
	C237.4,144.5,237.4,147.7,235.4,149.7z"/>
<g>
	<path style="fill:#FFFFFF;" d="M189.3,197.1c-2.1,0-4.1-0.8-5.6-2.3l-42.6-42.6c-3.1-3.1-3.1-8.1,0-11.2l42.6-42.6
		c1.5-1.5,3.4-2.3,5.6-2.3c2.2,0,4.1,0.8,5.6,2.3l42.6,42.6c3.1,3.1,3.1,8.1,0,11.2l-42.6,42.6C193.3,196.3,191.3,197.1,189.3,197.1
		z M189.3,100.4c-0.9,0-1.9,0.4-2.5,1.1l-42.6,42.6c-1.4,1.4-1.4,3.7,0,5.1l42.6,42.6c0.6,0.6,1.6,1.1,2.5,1.1
		c0.9,0,1.9-0.4,2.5-1.1l42.6-42.6c1.4-1.4,1.4-3.7,0-5.1l-42.6-42.6C191.1,100.9,190.2,100.4,189.3,100.4z"/>
</g>
<g>
	<path style="fill:#FFFFFF;" d="M29.6,49.3c-1.1,1.1-2.6,1.6-4.1,1.6c-1.5,0-2.9-0.6-4.1-1.6c-1.1-1.1-1.6-2.6-1.6-4.1V5.7
		c0-1.5,0.6-2.9,1.6-4.1C22.5,0.5,24,0,25.5,0c1.5,0,2.9,0.6,4.1,1.6c1.1,1.1,1.6,2.6,1.6,4.1v39.5C31.2,46.7,30.7,48.1,29.6,49.3z
		 M24.5,4.7c-0.3,0.3-0.4,0.6-0.4,1v39.5c0,0.4,0.1,0.7,0.4,1c0.3,0.3,0.6,0.4,1,0.4c0.8,0,1.4-0.6,1.4-1.4V5.7c0-0.4-0.1-0.7-0.4-1
		c-0.3-0.3-0.6-0.4-1-0.4C25.1,4.3,24.8,4.4,24.5,4.7z"/>
</g>
<g>
	<path style="fill:#FFFFFF;" d="M78.1,80.1c-3.2,0-5.7-2.6-5.7-5.7V46.5c0-3.2,2.6-5.7,5.7-5.7s5.7,2.6,5.7,5.7v27.9
		C83.8,77.5,81.2,80.1,78.1,80.1z M78.1,45c-0.8,0-1.4,0.6-1.4,1.4v27.9c0,0.8,0.6,1.4,1.4,1.4c0.8,0,1.4-0.6,1.4-1.4V46.5
		C79.5,45.7,78.9,45,78.1,45z"/>
</g>
<g>
	<path style="fill:#FFFFFF;" d="M217.2,152.4h-27.9c-3.2,0-5.7-2.6-5.7-5.7s2.6-5.7,5.7-5.7h27.9c3.2,0,5.7,2.6,5.7,5.7
		S220.3,152.4,217.2,152.4z M189.3,145.2c-0.8,0-1.4,0.6-1.4,1.4s0.6,1.4,1.4,1.4h27.9c0.8,0,1.4-0.6,1.4-1.4s-0.6-1.4-1.4-1.4
		H189.3z"/>
</g>
<g>
	<path style="fill:#FFFFFF;" d="M189.3,180.3c-1.5,0-2.9-0.6-4.1-1.6c-1.1-1.1-1.6-2.5-1.6-4.1c0-1.6,0.6-2.9,1.6-4.1l27.9-27.9
		c1.1-1.1,2.5-1.6,4.1-1.6s2.9,0.6,4.1,1.6c1.1,1.1,1.6,2.5,1.6,4.1c0,1.6-0.6,2.9-1.6,4.1l-28,27.9
		C192.2,179.7,190.8,180.3,189.3,180.3z M217.2,145.2c-0.4,0-0.7,0.1-1,0.4l-27.9,27.9c-0.3,0.3-0.4,0.6-0.4,1c0,0.4,0.1,0.7,0.4,1
		c0.6,0.6,1.5,0.6,2,0l27.9-27.9c0.3-0.3,0.4-0.6,0.4-1c0-0.4-0.1-0.7-0.4-1S217.5,145.2,217.2,145.2z"/>
</g>
<path style="fill:none;stroke:#231F20;stroke-width:6;stroke-miterlimit:10;" d="M17.8,199c-2.2,2.2-5.9,2.2-8.1,0L-33,156.4
	c-2.2-2.2-2.2-5.9,0-8.1l42.6-42.6c2.2-2.2,5.9-2.2,8.1,0l42.6,42.6c2.2,2.2,2.2,5.9,0,8.1L17.8,199z"/>
<path style="fill:none;stroke:#231F20;stroke-width:6;stroke-linecap:round;stroke-miterlimit:10;" d="M-11.7,154.9
	c-1.4,1.4-3.7,1.4-5.1,0l0,0c-1.4-1.4-1.4-3.7,0-5.1l27.9-27.9c1.4-1.4,3.7-1.4,5.1,0l0,0c1.4,1.4,1.4,3.7,0,5.1L-11.7,154.9z"/>
<path style="fill:none;stroke:#231F20;stroke-width:6;stroke-linecap:round;stroke-miterlimit:10;" d="M17.3,152.3
	c0,2-1.6,3.6-3.6,3.6l0,0c-2,0-3.6-1.6-3.6-3.6v-27.9c0-2,1.6-3.6,3.6-3.6l0,0c2,0,3.6,1.6,3.6,3.6
	C17.3,124.4,17.3,152.3,17.3,152.3z"/>
<path style="fill:none;stroke:#231F20;stroke-width:6;stroke-linecap:round;stroke-miterlimit:10;" d="M13.7,148.7
	c-2,0-3.6,1.6-3.6,3.6l0,0c0,2,1.6,3.6,3.6,3.6h27.9c2,0,3.6-1.6,3.6-3.6l0,0c0-2-1.6-3.6-3.6-3.6H13.7z"/>
<path style="fill:none;stroke:#231F20;stroke-width:6;stroke-linecap:round;stroke-miterlimit:10;" d="M16.2,182.8
	c-1.4,1.4-3.7,1.4-5.1,0l0,0c-1.4-1.4-1.4-3.7,0-5.1l27.9-27.9c1.4-1.4,3.7-1.4,5.1,0l0,0c1.4,1.4,1.4,3.7,0,5.1L16.2,182.8z"/>
<g>
	<path style="fill:#231F20;" d="M417.1,146.8l-42.6-42.6c-1.5-1.5-3.4-2.3-5.6-2.3c-2.1,0-4.1,0.8-5.6,2.3l-42.6,42.6
		c-3.1,3.1-3.1,8.1,0,11.2l42.6,42.6c1.5,1.5,3.4,2.3,5.6,2.3c2.1,0,4.1-0.8,5.6-2.3l42.6-42.6C420.2,154.8,420.2,149.8,417.1,146.8
		z M414.1,154.9l-42.6,42.6c-0.6,0.6-1.6,1.1-2.5,1.1c-0.9,0-1.9-0.4-2.5-1.1l-42.6-42.6c-1.4-1.4-1.4-3.7,0-5.1l42.6-42.6
		c0.6-0.6,1.6-1.1,2.5-1.1c0.9,0,1.9,0.4,2.5,1.1l42.6,42.6C415.5,151.1,415.5,153.4,414.1,154.9z"/>
	<path style="fill:#231F20;" d="M402.5,153L402.5,153c0-0.3,0-0.4,0-0.6s0-0.4,0-0.6v-0.1c0-0.1-0.1-0.4-0.1-0.5l0,0
		c-0.2-1.1-0.8-2.1-1.6-2.9c-0.8-0.8-1.8-1.4-2.9-1.6l0,0c-0.1,0-0.4-0.1-0.5-0.1h-0.1c-0.2,0-0.4,0-0.6,0h-22.2v-22.2
		c0-0.5-0.1-1.1-0.2-1.6v-0.1c0-0.1-0.1-0.2-0.1-0.4c0-0.1-0.1-0.1-0.1-0.2s-0.1-0.1-0.1-0.3c-0.1-0.1-0.1-0.1-0.1-0.3
		c0-0.1-0.1-0.1-0.1-0.1c-0.1-0.1-0.1-0.2-0.2-0.4c0,0,0-0.1-0.1-0.1c-0.2-0.3-0.4-0.6-0.6-0.8c-0.8-0.8-1.8-1.3-2.8-1.6h-0.1
		c-0.1,0-0.3-0.1-0.4-0.1c-0.1,0-0.1,0-0.1,0c-0.1,0-0.3,0-0.4,0c-0.1,0-0.1,0-0.2,0s-0.1,0-0.1,0c-0.1,0-0.3,0-0.4,0
		c-0.1,0-0.1,0-0.1,0c-0.1,0-0.3,0.1-0.4,0.1c0,0,0,0-0.1,0c-1.1,0.2-2.1,0.8-2.9,1.6L337,148.3c-1.1,1.1-1.6,2.5-1.6,4.1
		s0.6,2.9,1.6,4.1c1.1,1.1,2.5,1.6,4.1,1.6s2.9-0.6,4.1-1.6l18.1-18.1v14.1c0,3.2,2.6,5.7,5.7,5.7H383l-18.1,18.1
		c-2.2,2.2-2.2,5.9,0,8.1c1.1,1.1,2.5,1.6,4.1,1.6c1.5,0,2.9-0.6,4.1-1.6l27.9-27.9c0.8-0.8,1.4-1.8,1.6-2.9l0,0
		C402.4,153.3,402.5,153.1,402.5,153z M398.2,152.6C398.2,152.6,398.2,152.6,398.2,152.6c0,0.1-0.1,0.2-0.1,0.3l0,0
		c-0.2,0.5-0.7,0.9-1.3,0.9h-3.4l2.4-2.4c0.3-0.3,0.6-0.4,1-0.4c0.1,0,0.2,0,0.3,0c0,0,0,0,0.1,0c0.1,0,0.1,0.1,0.2,0.1l0,0
		c0.1,0,0.1,0.1,0.2,0.1c0.1,0,0.1,0.1,0.1,0.1c0.1,0.1,0.1,0.1,0.2,0.2l0.1,0.1c0.1,0.1,0.1,0.1,0.1,0.2l0,0c0,0.1,0.1,0.1,0.1,0.2
		c0,0,0,0,0,0.1s0,0.2,0,0.3C398.3,152.4,398.2,152.5,398.2,152.6z M369.9,125.5l-2.4,2.4v-3.4c0-0.6,0.4-1.1,0.9-1.3l0,0
		c0.1,0,0.1-0.1,0.2-0.1h0.1c0.1,0,0.1,0,0.2,0h0.1c0.1,0,0.1,0,0.1,0c0.1,0,0.1,0,0.1,0h0.1c0.1,0,0.1,0,0.1,0.1c0,0,0.1,0,0.1,0.1
		c0.1,0,0.1,0.1,0.1,0.1c0.1,0.1,0.1,0.1,0.1,0.1c0,0,0,0,0.1,0c0.1,0.1,0.1,0.1,0.1,0.2c0,0,0,0.1,0.1,0.1c0,0.1,0.1,0.1,0.1,0.1
		v0.1c0,0.1,0.1,0.1,0.1,0.2v0.1C370.4,124.6,370.3,125.1,369.9,125.5z M342,153.3c-0.6,0.6-1.5,0.6-2,0c-0.3-0.3-0.4-0.6-0.4-1
		c0-0.4,0.1-0.7,0.4-1l23.2-23.2v4.1L342,153.3z M370.4,131.1v15.5h-1.4c-0.5,0-1,0.1-1.4,0.2v-12.8L370.4,131.1z M367.5,152.3
		c0-0.8,0.6-1.4,1.4-1.4h1.4v1.4c0,0.8-0.6,1.4-1.4,1.4S367.5,153.1,367.5,152.3z M374.5,153.7c0.1-0.4,0.2-0.9,0.2-1.4v-1.4h15.5
		l-2.9,2.9H374.5z M369.9,181.2c-0.6,0.6-1.5,0.6-2,0c-0.6-0.6-0.6-1.4,0-2l21.2-21.2h4.1L369.9,181.2z"/>
</g>
</svg>
