<?xml version="1.0" encoding="utf-8"?>
<!-- Generator: Adobe Illustrator 17.1.0, SVG Export Plug-In . SVG Version: 6.00 Build 0)  -->
<!DOCTYPE svg PUBLIC "-//W3C//DTD SVG 1.1//EN" "http://www.w3.org/Graphics/SVG/1.1/DTD/svg11.dtd">
<svg version="1.1" id="Layer_1" xmlns="http://www.w3.org/2000/svg" xmlns:xlink="http://www.w3.org/1999/xlink" x="0px" y="0px"
	 viewBox="0 0 117.667 36.667" enable-background="new 0 0 117.667 36.667" xml:space="preserve">
<g>
	<path d="M23.819,8.052L20.267,6.9V5.124h16.369V6.9L32.46,8.052v24.722l4.176,1.152v1.776H20.267v-1.776l3.552-1.152V21.397H12.97
		v11.377l3.552,1.152v1.776H0.153v-1.776l4.176-1.152V8.052L0.153,6.9V5.124h16.369V6.9L12.97,8.052v10.225h10.849V8.052z"/>
	<path d="M46.377,25.094c0.144,4.8,2.304,7.345,6.672,7.345c2.208,0,4.225-0.288,7.153-1.104l0.576,1.2
		c-2.977,2.256-6.961,3.937-10.177,3.937c-7.249,0-11.665-4.512-11.665-11.185c0-6.96,5.905-12.097,11.905-12.097
		c7.873,0,10.609,5.376,10.225,11.905H46.377z M54.057,22.693c0-5.04-1.104-7.249-3.552-7.249c-2.353,0-3.937,2.736-4.081,7.777
		L54.057,22.693z"/>
	<path d="M76.473,34.07v1.632H62.984V34.07l3.024-1.152V6.324l-3.072-2.256v-1.44l9.505-2.497l1.151,0.625v32.163L76.473,34.07z"/>
	<path d="M91.064,34.07v1.632H77.575V34.07l3.024-1.152V6.324l-3.072-2.256v-1.44l9.505-2.497l1.151,0.625v32.163L91.064,34.07z"/>
	<path d="M104.984,36.471c-8.209,0-11.953-5.473-11.953-11.665c0-5.76,4.368-11.617,12.528-11.617
		c8.209,0,11.953,5.473,11.953,11.617C117.512,30.566,113.192,36.471,104.984,36.471z M105.272,15.685
		c-2.977,0-4.225,3.696-4.225,9.121s1.248,9.121,4.225,9.121c2.976,0,4.224-3.696,4.224-9.121S108.248,15.685,105.272,15.685z"/>
</g>
</svg>
