<?xml version="1.0" encoding="utf-8"?>
<!-- Generator: Adobe Illustrator 17.1.0, SVG Export Plug-In . SVG Version: 6.00 Build 0)  -->
<!DOCTYPE svg PUBLIC "-//W3C//DTD SVG 1.1//EN" "http://www.w3.org/Graphics/SVG/1.1/DTD/svg11.dtd">
<svg version="1.1" id="Layer_1" xmlns="http://www.w3.org/2000/svg" xmlns:xlink="http://www.w3.org/1999/xlink" x="0px" y="0px"
	 viewBox="0 0 185 184.846" enable-background="new 0 0 185 184.846" xml:space="preserve">
<path fill-rule="evenodd" clip-rule="evenodd" fill="#D16955" d="M92.522,184.846c-50.815,0-92.156-41.341-92.156-92.156
	S41.708,0.534,92.522,0.534s92.156,41.341,92.156,92.156S143.337,184.846,92.522,184.846z M170.242,105.305
	c-2.693-0.85-24.364-7.313-49.031-3.365c10.296,28.292,14.485,51.335,15.292,56.123
	C154.162,146.122,166.734,127.207,170.242,105.305z M123.27,165.269c-1.171-6.906-5.741-30.975-16.792-59.692
	c-0.173,0.059-0.346,0.115-0.519,0.175c-44.398,15.471-60.336,46.26-61.752,49.156c13.346,10.408,30.119,16.617,48.316,16.617
	C103.427,171.525,113.819,169.295,123.27,165.269z M34.043,145.441c1.783-3.052,23.386-38.822,63.983-51.944
	c1.026-0.332,2.061-0.643,3.102-0.937c-1.976-4.472-4.128-8.948-6.382-13.358C55.436,90.967,17.291,90.476,13.847,90.405
	c-0.024,0.799-0.04,1.6-0.04,2.405C13.807,113.027,21.471,131.486,34.043,145.441z M15.47,76.688
	c3.521,0.047,35.951,0.187,72.771-9.59C75.199,43.913,61.132,24.42,59.057,21.574C37.035,31.961,20.574,52.262,15.47,76.688z
	 M74.076,16.283c2.176,2.913,16.472,22.382,29.371,46.081c27.99-10.491,39.839-26.417,41.255-28.434
	c-13.901-12.333-32.179-19.835-52.18-19.835C86.171,14.095,79.996,14.856,74.076,16.283z M153.453,43.032
	c-1.659,2.245-14.85,19.154-43.954,31.037c1.832,3.749,3.588,7.563,5.222,11.402c0.579,1.36,1.144,2.715,1.696,4.062
	c26.191-3.293,52.216,1.985,54.811,2.534C171.055,73.487,164.416,56.427,153.453,43.032z"/>
</svg>
