<?xml version="1.0" encoding="utf-8"?>
<!-- Generator: Adobe Illustrator 17.1.0, SVG Export Plug-In . SVG Version: 6.00 Build 0)  -->
<!DOCTYPE svg PUBLIC "-//W3C//DTD SVG 1.1//EN" "http://www.w3.org/Graphics/SVG/1.1/DTD/svg11.dtd">
<svg version="1.1" id="Layer_1" xmlns="http://www.w3.org/2000/svg" xmlns:xlink="http://www.w3.org/1999/xlink" x="0px" y="0px"
	 viewBox="0 0 200.5 129.5" enable-background="new 0 0 200.5 129.5" xml:space="preserve">
<g>
	<g>
		<polygon fill="#FF7F66" points="195.641,69 156.359,69 152,129 200,129 		"/>
	</g>
	<g>
		<path fill="#3E0F00" d="M197.181,60.992C197.081,59.897,196.1,59,195,59h-38c-1.1,0-2.081,0.897-2.181,1.992l-0.638,7.017
			C154.081,69.104,154.9,70,156,70h40c1.1,0,1.919-0.896,1.819-1.992L197.181,60.992z"/>
	</g>
	<g>
		<path fill="#3E0F00" d="M185,68h-18c-1.625,0-3.146-0.673-4.174-1.847c-1.028-1.174-1.495-2.771-1.28-4.382l0.943-7.071
			c0.425-3.196,3.285-5.7,6.511-5.7h14c3.226,0,6.086,2.504,6.511,5.701l0.943,7.069c0.215,1.612-0.252,3.209-1.28,4.383
			C188.146,67.327,186.625,68,185,68z M169,53c-1.198,0-2.388,1.042-2.546,2.229l-0.943,7.071c-0.063,0.474,0.052,0.907,0.324,1.218
			C166.107,63.829,166.521,64,167,64h18c0.479,0,0.893-0.171,1.165-0.482c0.272-0.311,0.388-0.744,0.324-1.219l-0.943-7.069
			C185.388,54.042,184.198,53,183,53H169z"/>
	</g>
	<g>
		<defs>
			<polyline id="SVGID_1_" points="190,75 195,123 158.641,123 162,75 			"/>
		</defs>
		<clipPath id="SVGID_2_">
			<use xlink:href="#SVGID_1_"  overflow="visible"/>
		</clipPath>
		<g clip-path="url(#SVGID_2_)">
			<g>
				<g>
					<circle fill="#7C3C2F" cx="164" cy="121" r="2"/>
				</g>
				<g>
					<circle fill="#7C3C2F" cx="164" cy="113" r="2"/>
				</g>
				<g>
					<circle fill="#7C3C2F" cx="168" cy="117" r="2"/>
				</g>
				<g>
					<circle fill="#7C3C2F" cx="168" cy="109" r="2"/>
				</g>
			</g>
			<g>
				<g>
					<circle fill="#7C3C2F" cx="172" cy="121" r="2"/>
				</g>
				<g>
					<circle fill="#7C3C2F" cx="172" cy="113" r="2"/>
				</g>
				<g>
					<circle fill="#7C3C2F" cx="176" cy="117" r="2"/>
				</g>
				<g>
					<circle fill="#7C3C2F" cx="176" cy="109" r="2"/>
				</g>
			</g>
			<g>
				<g>
					<circle fill="#7C3C2F" cx="180" cy="121" r="2"/>
				</g>
				<g>
					<circle fill="#7C3C2F" cx="180" cy="113" r="2"/>
				</g>
				<g>
					<circle fill="#7C3C2F" cx="184" cy="117" r="2"/>
				</g>
				<g>
					<circle fill="#7C3C2F" cx="184" cy="109" r="2"/>
				</g>
			</g>
			<g>
				<g>
					<circle fill="#7C3C2F" cx="188" cy="121" r="2"/>
				</g>
				<g>
					<circle fill="#7C3C2F" cx="188" cy="113" r="2"/>
				</g>
			</g>
			<g>
				<g>
					<circle fill="#7C3C2F" cx="164" cy="105" r="2"/>
				</g>
				<g>
					<circle fill="#7C3C2F" cx="164" cy="97" r="2"/>
				</g>
				<g>
					<circle fill="#7C3C2F" cx="168" cy="101" r="2"/>
				</g>
				<g>
					<circle fill="#7C3C2F" cx="168" cy="93" r="2"/>
				</g>
			</g>
			<g>
				<g>
					<circle fill="#7C3C2F" cx="172" cy="105" r="2"/>
				</g>
				<g>
					<circle fill="#7C3C2F" cx="172" cy="97" r="2"/>
				</g>
				<g>
					<circle fill="#7C3C2F" cx="176" cy="101" r="2"/>
				</g>
				<g>
					<circle fill="#7C3C2F" cx="176" cy="93" r="2"/>
				</g>
			</g>
			<g>
				<g>
					<circle fill="#7C3C2F" cx="180" cy="105" r="2"/>
				</g>
				<g>
					<circle fill="#7C3C2F" cx="180" cy="97" r="2"/>
				</g>
				<g>
					<circle fill="#7C3C2F" cx="184" cy="101" r="2"/>
				</g>
				<g>
					<circle fill="#7C3C2F" cx="184" cy="93" r="2"/>
				</g>
			</g>
			<g>
				<g>
					<circle fill="#7C3C2F" cx="188" cy="105" r="2"/>
				</g>
				<g>
					<circle fill="#7C3C2F" cx="188" cy="97" r="2"/>
				</g>
			</g>
			<g>
				<g>
					<circle fill="#7C3C2F" cx="164" cy="89" r="2"/>
				</g>
				<g>
					<circle fill="#7C3C2F" cx="164" cy="81" r="2"/>
				</g>
				<g>
					<circle fill="#7C3C2F" cx="168" cy="85" r="2"/>
				</g>
				<g>
					<circle fill="#7C3C2F" cx="168" cy="77" r="2"/>
				</g>
			</g>
			<g>
				<g>
					<circle fill="#7C3C2F" cx="172" cy="89" r="2"/>
				</g>
				<g>
					<circle fill="#7C3C2F" cx="172" cy="81" r="2"/>
				</g>
				<g>
					<circle fill="#7C3C2F" cx="176" cy="85" r="2"/>
				</g>
				<g>
					<circle fill="#7C3C2F" cx="176" cy="77" r="2"/>
				</g>
			</g>
			<g>
				<g>
					<circle fill="#7C3C2F" cx="180" cy="89" r="2"/>
				</g>
				<g>
					<circle fill="#7C3C2F" cx="180" cy="81" r="2"/>
				</g>
				<g>
					<circle fill="#7C3C2F" cx="184" cy="85" r="2"/>
				</g>
				<g>
					<circle fill="#7C3C2F" cx="184" cy="77" r="2"/>
				</g>
			</g>
			<g>
				<g>
					<circle fill="#7C3C2F" cx="188" cy="89" r="2"/>
				</g>
				<g>
					<circle fill="#7C3C2F" cx="188" cy="81" r="2"/>
				</g>
			</g>
		</g>
	</g>
</g>
<g>
	<g>
		<path fill="#7C3C2F" d="M59,46h-5c-1.657,0-3,1.343-3,3v20c0,1.657-1.306,4.143-2.258,4.976C43,79,43,84.343,43,86v40
			c0,1.657,1.343,3,3,3h5h11h6c1.657,0,3-1.343,3-3V86c0-1.657,0-7-6.7-12.612c-1.04-0.871-2.3-3.27-2.3-4.926V49
			C62,47.343,60.657,46,59,46z"/>
	</g>
	<g>
		<path fill="#FF7F66" d="M62,45c0,0.55-0.45,1-1,1h-9c-0.55,0-1-0.45-1-1v-1c0-0.55,0.45-1,1-1h9c0.55,0,1,0.45,1,1V45z"/>
	</g>
	<g>
		<path fill="#552216" d="M46,86v39c0,0.552,0.448,1,1,1h20c0.552,0,1-0.448,1-1V86H46z"/>
	</g>
	<g>
		<circle fill="#B55D4C" cx="61" cy="121" r="1.188"/>
	</g>
	<g>
		<circle fill="#B55D4C" cx="51.188" cy="107" r="1.188"/>
	</g>
	<g>
		<circle fill="#B55D4C" cx="57" cy="116" r="1.188"/>
	</g>
	<g>
		<circle fill="#B55D4C" cx="63.188" cy="102" r="1.188"/>
	</g>
	<g>
		<circle fill="#B55D4C" cx="54.188" cy="91" r="1.188"/>
	</g>
	<g>
		<circle fill="#B55D4C" cx="62.188" cy="115" r="1.188"/>
	</g>
</g>
<g>
	<defs>
		<path id="SVGID_3_" d="M200,129l-4.286-59H196c1.1,0,1.919-0.896,1.819-1.992l-0.638-7.017C197.081,59.897,196.1,59,195,59h-4.915
			l-0.573-4.3c-0.427-3.196-3.287-5.7-6.511-5.7h-14c-3.225,0-6.085,2.504-6.511,5.701L161.915,59H157
			c-1.1,0-2.081,0.897-2.181,1.992l-0.638,7.017C154.081,69.104,154.9,70,156,70h0.286L152,129H200z M166.454,55.23
			C166.612,54.042,167.802,53,169,53h14c1.198,0,2.388,1.042,2.546,2.229L186.049,59h-20.098L166.454,55.23z"/>
	</defs>
	<clipPath id="SVGID_4_">
		<use xlink:href="#SVGID_3_"  overflow="visible"/>
	</clipPath>
	<g opacity="0.2" clip-path="url(#SVGID_4_)">
		<g>
			<path fill="#3E0F00" d="M171.538,125c0,2.2-1.8,4-4,4H90c-2.2,0-4-1.8-4-4V4c0-2.2,1.8-4,4-4h77.538c2.2,0,4,1.8,4,4V125z"/>
		</g>
	</g>
</g>
<g>
	<g>
		<path fill="#B55D4C" d="M165.538,125c0,2.2-1.8,4-4,4H84c-2.2,0-4-1.8-4-4V4c0-2.2,1.8-4,4-4h77.538c2.2,0,4,1.8,4,4V125z"/>
	</g>
	<g>
		<path fill="#FF7F66" d="M160.538,125c0,2.2-1.8,4-4,4H79c-2.2,0-4-1.8-4-4V4c0-2.2,1.8-4,4-4h77.538c2.2,0,4,1.8,4,4V125z"/>
	</g>
	<g opacity="0.1">
		<rect x="83" fill="#7C3C2F" width="21" height="129"/>
	</g>
	<g opacity="0.1">
		<rect x="126" fill="#7C3C2F" width="12" height="129"/>
	</g>
	<g opacity="0.2">
		<rect x="98" fill="#7C3C2F" width="16" height="129"/>
	</g>
	<g opacity="0.2">
		<rect x="134" fill="#7C3C2F" width="16" height="129"/>
	</g>
	<g>
		<path fill="#3E0F00" d="M118.538,118c-16.229,0-27.224-5.403-27.684-5.633c-2.964-1.482-4.165-5.086-2.683-8.05
			c1.479-2.956,5.067-4.16,8.03-2.693C96.4,101.72,105.377,106,118.538,106c13.214,0,22.229-4.323,22.316-4.367
			c2.966-1.482,6.569-0.279,8.05,2.684c1.482,2.964,0.281,6.568-2.683,8.05C145.762,112.597,134.768,118,118.538,118z"/>
	</g>
	<g>
		<path fill="#3E0F00" d="M118.538,101c-16.473,0-27.62-6.575-28.087-6.855c-2.842-1.705-3.763-5.391-2.058-8.232
			c1.7-2.834,5.37-3.758,8.21-2.071c0.21,0.122,9.035,5.158,21.935,5.158c12.976,0,21.827-5.093,21.913-5.145
			c2.84-1.703,6.526-0.784,8.231,2.058c1.705,2.841,0.784,6.527-2.058,8.232C146.158,94.425,135.011,101,118.538,101z"/>
	</g>
	<g>
		<g>
			<path fill="#3E0F00" d="M88.538,45c7.732,0,14,6.268,14,14s-6.268,14-14,14v-3l6-11l-6-11V45z"/>
		</g>
		<g>
			<path fill="#B55D4C" d="M88.538,48c6.075,0,11,4.925,11,11c0,6.075-4.925,11-11,11V48z"/>
		</g>
		<g opacity="0.7">
			<path fill="#7C3C2F" d="M95.33,57.417c0.875,0,1.584,0.709,1.584,1.583c0,0.875-0.709,1.584-1.584,1.584
				c-0.874,0-3.166-0.792-3.166-1.584C92.163,58.209,94.456,57.417,95.33,57.417z"/>
		</g>
		<g opacity="0.7">
			<path fill="#7C3C2F" d="M92.028,51.571c0.67-0.562,1.669-0.475,2.232,0.196c0.561,0.669,0.474,1.668-0.195,2.231
				c-0.67,0.561-2.936,1.429-3.444,0.822C90.112,54.213,91.358,52.133,92.028,51.571z"/>
		</g>
		<g opacity="0.7">
			<path fill="#7C3C2F" d="M92.028,66.468c0.67,0.562,1.669,0.475,2.232-0.196c0.561-0.67,0.474-1.669-0.195-2.231
				c-0.67-0.561-2.936-1.429-3.444-0.822C90.112,63.826,91.358,65.906,92.028,66.468z"/>
		</g>
	</g>
	<g>
		<g>
			<path fill="#3E0F00" d="M106,45c7.732,0,14,6.268,14,14s-6.268,14-14,14v-3l6-11l-6-11V45z"/>
		</g>
		<g>
			<path fill="#B55D4C" d="M106,48c6.075,0,11,4.925,11,11c0,6.075-4.925,11-11,11V48z"/>
		</g>
		<g opacity="0.7">
			<path fill="#7C3C2F" d="M112.791,57.417c0.875,0,1.584,0.709,1.584,1.583c0,0.875-0.709,1.584-1.584,1.584
				c-0.874,0-3.166-0.792-3.166-1.584C109.625,58.209,111.917,57.417,112.791,57.417z"/>
		</g>
		<g opacity="0.7">
			<path fill="#7C3C2F" d="M109.49,51.571c0.67-0.562,1.669-0.475,2.231,0.196c0.562,0.669,0.474,1.668-0.195,2.231
				c-0.67,0.561-2.936,1.429-3.444,0.822C107.574,54.213,108.82,52.133,109.49,51.571z"/>
		</g>
		<g opacity="0.7">
			<path fill="#7C3C2F" d="M109.49,66.468c0.67,0.562,1.669,0.475,2.231-0.196c0.562-0.67,0.474-1.669-0.195-2.231
				c-0.67-0.561-2.936-1.429-3.444-0.822C107.574,63.826,108.82,65.906,109.49,66.468z"/>
		</g>
	</g>
	<g>
		<circle fill="#B55D4C" cx="100.038" cy="23.5" r="12.5"/>
	</g>
	<g>
		<circle fill="#3E0F00" cx="100.038" cy="23.5" r="9.239"/>
	</g>
	<g>
		<path fill="#BF5850" d="M102.872,24.5c-0.287,0-0.586-0.076-0.888-0.226c-0.244-0.121-0.489-0.289-0.732-0.459
			c-0.2-0.139-0.4-0.282-0.601-0.381c-0.328-0.161-0.563-0.161-0.89,0c-0.202,0.1-0.402,0.242-0.603,0.382
			c-0.242,0.17-0.487,0.338-0.731,0.458c-0.606,0.3-1.164,0.302-1.776,0c-0.243-0.121-0.488-0.289-0.731-0.459
			c-0.201-0.14-0.401-0.282-0.602-0.381c-0.327-0.161-0.558-0.163-0.891,0c-0.197,0.098-0.396,0.238-0.595,0.377l-0.571-0.821
			c0.241-0.167,0.483-0.333,0.724-0.453c0.615-0.303,1.169-0.3,1.776,0c0.243,0.121,0.488,0.289,0.73,0.458
			c0.202,0.142,0.402,0.283,0.603,0.382c0.331,0.164,0.563,0.163,0.89,0c0.201-0.099,0.401-0.241,0.602-0.381
			c0.244-0.17,0.489-0.339,0.732-0.459c0.604-0.299,1.167-0.299,1.775,0c0.244,0.121,0.489,0.289,0.731,0.458
			c0.201,0.142,0.401,0.283,0.603,0.382c0.326,0.162,0.563,0.162,0.89,0c0.2-0.099,0.4-0.241,0.603-0.382
			c0.247-0.173,0.489-0.339,0.73-0.458c0.607-0.3,1.162-0.302,1.775,0c0.241,0.12,0.483,0.286,0.725,0.453l-0.563,0.826
			c-0.207-0.144-0.405-0.284-0.604-0.382c-0.33-0.162-0.562-0.161-0.89,0c-0.199,0.098-0.396,0.238-0.595,0.377
			c-0.25,0.175-0.495,0.343-0.738,0.463C103.459,24.424,103.159,24.5,102.872,24.5z"/>
	</g>
	<g>
		<path fill="#BF5850" d="M102.872,20.5c-0.287,0-0.586-0.076-0.888-0.226c-0.244-0.121-0.489-0.289-0.732-0.459
			c-0.2-0.139-0.4-0.282-0.601-0.381c-0.328-0.161-0.563-0.161-0.89,0c-0.202,0.1-0.402,0.242-0.603,0.382
			c-0.242,0.17-0.487,0.338-0.731,0.458c-0.606,0.3-1.164,0.302-1.776,0c-0.243-0.121-0.488-0.289-0.731-0.459l0.572-0.819
			c0.202,0.141,0.402,0.283,0.603,0.382c0.331,0.164,0.563,0.163,0.89,0c0.201-0.099,0.401-0.241,0.602-0.381
			c0.244-0.17,0.489-0.339,0.732-0.459c0.604-0.299,1.167-0.299,1.775,0c0.244,0.121,0.489,0.289,0.731,0.458
			c0.201,0.142,0.401,0.283,0.603,0.382c0.326,0.162,0.563,0.162,0.89,0c0.2-0.099,0.4-0.241,0.603-0.382l0.572,0.819
			c-0.243,0.17-0.488,0.338-0.731,0.459C103.459,20.424,103.159,20.5,102.872,20.5z"/>
	</g>
	<g>
		<path fill="#BF5850" d="M102.872,28.5c-0.287,0-0.586-0.076-0.888-0.226c-0.244-0.121-0.489-0.289-0.732-0.459
			c-0.2-0.139-0.4-0.282-0.601-0.381c-0.328-0.161-0.563-0.161-0.89,0c-0.202,0.1-0.402,0.242-0.603,0.382
			c-0.242,0.17-0.487,0.338-0.731,0.458c-0.606,0.3-1.164,0.302-1.776,0c-0.243-0.121-0.488-0.289-0.731-0.459l0.572-0.819
			c0.202,0.141,0.402,0.283,0.603,0.382c0.331,0.164,0.563,0.163,0.89,0c0.201-0.099,0.401-0.241,0.602-0.381
			c0.244-0.17,0.489-0.339,0.732-0.459c0.604-0.299,1.167-0.299,1.775,0c0.244,0.121,0.489,0.289,0.731,0.458
			c0.201,0.142,0.401,0.283,0.603,0.382c0.326,0.162,0.563,0.162,0.89,0c0.2-0.099,0.4-0.241,0.603-0.382l0.572,0.819
			c-0.243,0.17-0.488,0.338-0.731,0.459C103.459,28.424,103.159,28.5,102.872,28.5z"/>
	</g>
</g>
<g>
	<defs>
		<path id="SVGID_5_" d="M64.3,73.388c-1.04-0.871-2.3-3.27-2.3-4.926V49c0-1.657-1.343-3-3-3h3v-3H51v3h3c-1.657,0-3,1.343-3,3v20
			c0,1.657-1.306,4.143-2.258,4.976C43,79,43,84.343,43,86v40c0,1.657,1.343,3,3,3h5h11h6c1.657,0,3-1.343,3-3V86
			C71,84.343,71,79,64.3,73.388z"/>
	</defs>
	<clipPath id="SVGID_6_">
		<use xlink:href="#SVGID_5_"  overflow="visible"/>
	</clipPath>
	<g opacity="0.1" clip-path="url(#SVGID_6_)">
		<path fill="#3E0F00" d="M52,116V94H41c0,1.657-1.343,3-3,3s-3-1.343-3-3H21H4v35h17h31v-9c-1.104,0-2-0.896-2-2S50.896,116,52,116
			z"/>
	</g>
</g>
<g>
	<g>
		<path fill="#B55D4C" d="M46,118c0-1.104,0.896-2,2-2V94H37c0,1.657-1.343,3-3,3s-3-1.343-3-3H17v35h31v-9
			C46.896,120,46,119.104,46,118z"/>
	</g>
	<g>
		<circle fill="#7C3C2F" cx="24" cy="102" r="2"/>
	</g>
	<path fill="#FF7F66" d="M0,94v27c1.104,0,2,0.896,2,2s-0.896,2-2,2v4h17V94H0z"/>
	<g>
		<circle fill="#7C3C2F" cx="26" cy="117" r="2"/>
	</g>
	<g>
		<circle fill="#7C3C2F" cx="43" cy="106" r="2"/>
	</g>
	<g>
		<circle fill="#B55D4C" cx="5" cy="113" r="2"/>
	</g>
	<g>
		<circle fill="#B55D4C" cx="11" cy="103" r="2"/>
	</g>
	<g>
		<circle fill="#B55D4C" cx="17" cy="121" r="2"/>
	</g>
	<g>
		<path fill="#7C3C2F" d="M17,119c1.104,0,2,0.896,2,2s-0.896,2-2,2"/>
	</g>
	<g>
		<circle fill="#7C3C2F" cx="34" cy="121" r="3"/>
	</g>
</g>
<g>
	<g>
		<path fill="#8E4739" d="M138.493,37.536c-0.497-1.859,0.982-2.488,2.191-6.75c0.253-0.895-0.076-1.549-0.643-1.804
			c-0.632-0.284-1.159-0.476-1.375,0.384c-0.329,1.306-1.493,1.022-1.2-0.2c0.211-0.871-0.043-1.772-0.739-1.92
			c-0.787-0.165-1.196-0.589-1.42,0.28c-0.3,1.177-1.633-1.939-3.215-0.909c0,0-0.99-1.381-1.927-0.771
			c-0.939,0.612-0.071,2.075-0.071,2.075c-1.585,1.03,0.727,3.509-0.469,3.31c-0.886-0.146-0.665,0.396-0.831,1.185
			c-0.145,0.696,0.576,1.292,1.458,1.454c1.234,0.222,1.027,1.404-0.301,1.175c-0.874-0.149-0.912,0.408-0.909,1.104
			c0.006,0.621,0.472,1.188,1.394,1.317c4.386,0.614,5.562-0.484,7.058,0.72"/>
	</g>
	<g>
		<path fill="#8E4739" d="M142.276,37.874c0.427-1.36-0.289-1.62-1.055-4.816c-0.16-0.674,0.107-1.148,0.534-1.321
			c0.476-0.189,0.874-0.314,1.008,0.329c0.203,0.979,1.077,0.805,0.894-0.108c-0.128-0.655,0.088-1.317,0.609-1.405
			c0.59-0.097,0.907-0.399,1.045,0.253c0.187,0.881,1.273-1.387,2.415-0.572c0,0,0.776-0.996,1.451-0.513
			c0.677,0.484-0.01,1.542-0.01,1.542c1.142,0.812-0.649,2.579,0.246,2.469c0.662-0.083,0.479,0.315,0.577,0.904
			c0.087,0.523-0.467,0.943-1.126,1.035c-0.922,0.125-0.806,1.008,0.187,0.882c0.653-0.084,0.663,0.331,0.637,0.845
			c-0.023,0.461-0.383,0.868-1.073,0.934c-3.272,0.32-4.324-1.156-5.472-0.309"/>
	</g>
	<g>
		<path fill="#8E4739" d="M136.277,41.783c-1.417-0.158-1.363-0.919-3.979-2.909c-0.552-0.418-1.095-0.367-1.425-0.045
			c-0.367,0.36-0.641,0.674-0.105,1.057c0.814,0.579,0.297,1.308-0.463,0.774c-0.547-0.383-1.238-0.452-1.527-0.009
			c-0.329,0.5-0.734,0.668-0.192,1.055c0.73,0.527-1.783,0.606-1.499,1.981c0,0-1.225,0.309-1.054,1.12
			c0.169,0.814,1.412,0.615,1.412,0.615c0.284,1.374,2.623,0.449,2.162,1.22c-0.341,0.572,0.096,0.568,0.595,0.895
			c0.442,0.289,1.051-0.046,1.4-0.616c0.488-0.79,1.248-0.328,0.73,0.529c-0.34,0.564,0.036,0.739,0.515,0.926
			c0.434,0.166,0.952-0.003,1.291-0.607c1.612-2.862,0.686-4.422,1.924-5.13"/>
	</g>
	<g>
		<path fill="#8E4739" d="M136.571,42.815c-0.518,0-1.079-0.102-1.664-0.309c-0.261-0.092-0.396-0.378-0.305-0.638
			c0.094-0.26,0.379-0.395,0.639-0.304c1.25,0.443,2.271,0.31,2.801-0.364c0.51-0.647,0.446-1.667-0.161-2.6l-1.63-2.497
			l0.838-0.546l1.63,2.497c0.845,1.298,0.888,2.776,0.109,3.765C138.311,42.476,137.516,42.815,136.571,42.815z"/>
	</g>
	<g>
		<path fill="#8E4739" d="M140.652,40.3c-1.03,0-2.069-0.622-2.771-1.7l-1.63-2.497l0.838-0.546l1.63,2.497
			c0.607,0.934,1.515,1.402,2.311,1.199c0.817-0.21,1.364-1.113,1.461-2.415c0.021-0.276,0.261-0.487,0.536-0.461
			c0.275,0.021,0.482,0.26,0.462,0.536c-0.132,1.751-0.958,2.988-2.21,3.31C141.072,40.274,140.862,40.3,140.652,40.3z"/>
	</g>
	<g>
		<path fill="#8E4739" d="M146.406,47.873c-2.471,0-4.669-1.742-6.065-4.827c-0.977-2.155-1.501-3.018-2.751-4.936
			c-0.15-0.231-0.085-0.541,0.146-0.692c0.233-0.15,0.542-0.086,0.692,0.146c1.255,1.925,1.823,2.86,2.823,5.069
			c1.275,2.816,3.239,4.369,5.408,4.231c0.26-0.013,0.512,0.194,0.528,0.47c0.017,0.276-0.194,0.512-0.47,0.528
			C146.613,47.87,146.51,47.873,146.406,47.873z"/>
	</g>
</g>
<g>
	<g>
		<path fill="#8E4739" d="M142.817,55.601c0.224,1.41,0.983,1.322,3.091,3.842c0.444,0.532,0.418,1.075,0.111,1.42
			c-0.343,0.384-0.643,0.671-1.05,0.154c-0.618-0.788-1.32-0.239-0.75,0.498c0.403,0.528,0.507,1.216,0.079,1.526
			c-0.484,0.35-0.634,0.763-1.047,0.24c-0.56-0.705-0.521,1.809-1.907,1.588c0,0-0.253,1.237-1.072,1.105
			c-0.822-0.129-0.678-1.382-0.678-1.382c-1.386-0.22-0.57-2.598-1.32-2.102c-0.558,0.368-0.57-0.072-0.92-0.553
			c-0.311-0.43-0.002-1.054,0.547-1.428c0.77-0.523,0.271-1.262-0.559-0.704c-0.546,0.362-0.742-0.004-0.948-0.475
			c-0.186-0.423-0.042-0.949,0.546-1.315c2.786-1.743,4.385-0.89,5.035-2.159"/>
	</g>
</g>
<g>
	<g>
		<path fill="#8E4739" d="M140.158,23.09c0.252-1.405-0.495-1.571-1.66-4.643c-0.244-0.648-0.042-1.152,0.362-1.378
			c0.45-0.252,0.828-0.423,1.042,0.198c0.325,0.947,1.168,0.659,0.871-0.225c-0.207-0.631-0.079-1.315,0.426-1.468
			c0.573-0.171,0.85-0.512,1.069,0.118c0.298,0.851,1.085-1.537,2.322-0.874c0,0,0.645-1.086,1.376-0.693
			c0.735,0.393,0.188,1.527,0.188,1.527c1.236,0.663-0.314,2.642,0.558,2.42c0.646-0.166,0.515,0.254,0.688,0.825
			c0.153,0.506-0.344,0.994-0.985,1.168c-0.898,0.241-0.669,1.104,0.297,0.85c0.635-0.164,0.699,0.246,0.739,0.758
			c0.038,0.46-0.272,0.91-0.947,1.064c-3.202,0.732-4.434-0.598-5.465,0.387"/>
	</g>
</g>
<rect x="-1.5" y="-22.5" fill="#FF7F66" width="12.75" height="12.75"/>
<rect x="87.75" y="-22.5" fill="#693024" width="12.75" height="12.75"/>
<rect x="100.5" y="-22.5" fill="#552216" width="12.75" height="12.75"/>
<rect x="113.25" y="-22.5" fill="#3E0F00" width="12.75" height="12.75"/>
<rect x="126" y="-22.5" fill="#210000" width="12.75" height="12.75"/>
<rect x="11.25" y="-22.5" fill="#DD725E" width="12.75" height="12.75"/>
<rect x="24" y="-22.5" fill="#C96856" width="12.75" height="12.75"/>
<rect x="36.75" y="-22.5" fill="#B55D4C" width="12.75" height="12.75"/>
<rect x="49.5" y="-22.5" fill="#A15243" width="12.75" height="12.75"/>
<rect x="62.25" y="-22.5" fill="#8E4739" width="12.75" height="12.75"/>
<rect x="75" y="-22.5" fill="#7C3C2F" width="12.75" height="12.75"/>
</svg>
