<?xml version="1.0" encoding="utf-8"?>
<!-- Generator: Adobe Illustrator 17.1.0, SVG Export Plug-In . SVG Version: 6.00 Build 0)  -->
<!DOCTYPE svg PUBLIC "-//W3C//DTD SVG 1.1//EN" "http://www.w3.org/Graphics/SVG/1.1/DTD/svg11.dtd">
<svg version="1.1" id="Layer_1" xmlns="http://www.w3.org/2000/svg" xmlns:xlink="http://www.w3.org/1999/xlink" x="0px" y="0px"
	 viewBox="0 0 50 50" style="enable-background:new 0 0 50 50;" xml:space="preserve">
<path style="fill:#FFFFFF;" d="M25,0C11.2,0,0,11.2,0,25s11.2,25,25,25s25-11.2,25-25S38.8,0,25,0z M25,48C12.3,48,2,37.7,2,25
	C2,12.3,12.3,2,25,2c12.7,0,23,10.3,23,23C48,37.7,37.7,48,25,48z M36.9,25.4c-0.1,0.1-0.1,0.2-0.2,0.3l-7.5,7.5
	c-0.2,0.2-0.5,0.3-0.7,0.3s-0.5-0.1-0.7-0.3c-0.4-0.4-0.4-1,0-1.4l5.8-5.8H14c-0.6,0-1-0.4-1-1c0-0.6,0.4-1,1-1h19.6l-5.8-5.8
	c-0.4-0.4-0.4-1,0-1.4s1-0.4,1.4,0l7.5,7.5c0.1,0.1,0.2,0.2,0.2,0.3C37,24.9,37,25.1,36.9,25.4z"/>
</svg>
