<?xml version="1.0" encoding="utf-8"?>
<!-- Generator: Adobe Illustrator 18.0.0, SVG Export Plug-In . SVG Version: 6.00 Build 0)  -->
<!DOCTYPE svg PUBLIC "-//W3C//DTD SVG 1.1//EN" "http://www.w3.org/Graphics/SVG/1.1/DTD/svg11.dtd">
<svg version="1.1" id="Layer_1" xmlns="http://www.w3.org/2000/svg" xmlns:xlink="http://www.w3.org/1999/xlink" x="0px" y="0px"
	 viewBox="0 0 140.8 140.8" enable-background="new 0 0 140.8 140.8" xml:space="preserve">
<g opacity="0.6">
	<path d="M137.6,62.6L78.2,3.2C76.1,1.1,73.3,0,70.4,0c-2.9,0-5.7,1.1-7.8,3.2L3.2,62.6c-4.3,4.3-4.3,11.3,0,15.6l59.4,59.4
		c2.1,2.1,4.8,3.2,7.8,3.2c2.9,0,5.7-1.1,7.8-3.2l59.4-59.4C141.9,73.9,141.9,66.9,137.6,62.6z M133.3,73.9l-59.4,59.4
		c-0.9,0.9-2.2,1.5-3.5,1.5c-1.3,0-2.6-0.5-3.5-1.5L7.5,73.9c-2-2-2-5.1,0-7.1L66.9,7.5C67.8,6.5,69.1,6,70.4,6
		c1.3,0,2.6,0.5,3.5,1.5l59.4,59.4C135.3,68.8,135.3,72,133.3,73.9z"/>
	<path d="M117.2,71.3c0,0,0-0.1,0-0.1c0-0.3,0-0.5,0-0.8c0-0.3,0-0.5,0-0.8c0,0,0-0.1,0-0.1c0-0.2-0.1-0.5-0.1-0.7c0,0,0,0,0,0
		c-0.3-1.5-1.1-2.9-2.2-4c-1.1-1.1-2.5-1.9-4-2.2c0,0,0,0,0,0c-0.2,0-0.5-0.1-0.7-0.1c0,0-0.1,0-0.1,0c-0.3,0-0.5,0-0.8,0H78.4V31.5
		c0-0.7-0.1-1.5-0.3-2.2c0,0,0-0.1,0-0.1c0-0.2-0.1-0.3-0.2-0.5c0-0.1-0.1-0.2-0.1-0.3c0-0.1-0.1-0.2-0.2-0.4
		c-0.1-0.1-0.1-0.2-0.2-0.4c0-0.1-0.1-0.2-0.1-0.2c-0.1-0.2-0.2-0.3-0.3-0.5c0,0,0-0.1-0.1-0.1c-0.3-0.4-0.6-0.8-0.9-1.1
		c-1.1-1.1-2.5-1.8-3.9-2.2c0,0-0.1,0-0.1,0c-0.2,0-0.4-0.1-0.6-0.1c-0.1,0-0.2,0-0.2,0c-0.2,0-0.4,0-0.5,0c-0.1,0-0.2,0-0.3,0
		c-0.1,0-0.2,0-0.2,0c-0.2,0-0.4,0-0.6,0c-0.1,0-0.1,0-0.2,0c-0.2,0-0.4,0.1-0.6,0.1c0,0,0,0-0.1,0c-1.5,0.3-2.9,1.1-4,2.2
		L25.8,64.7c-1.5,1.5-2.3,3.5-2.3,5.7s0.8,4.1,2.3,5.7c1.5,1.5,3.5,2.3,5.7,2.3s4.1-0.8,5.7-2.3l25.2-25.2v19.6c0,4.4,3.6,8,8,8H90
		l-25.2,25.2c-3.1,3.1-3.1,8.2,0,11.3c1.5,1.5,3.5,2.3,5.7,2.3c2.1,0,4.1-0.8,5.7-2.3l38.9-38.9c1.1-1.1,1.9-2.5,2.2-4c0,0,0,0,0,0
		C117.2,71.8,117.2,71.6,117.2,71.3z M111.2,70.8C111.2,70.8,111.2,70.8,111.2,70.8c0,0.2-0.1,0.3-0.1,0.4c0,0,0,0,0,0
		c-0.3,0.7-1,1.2-1.8,1.2h-4.8l3.4-3.4c0.4-0.4,0.9-0.6,1.4-0.6c0.1,0,0.3,0,0.4,0c0,0,0,0,0.1,0c0.1,0,0.2,0.1,0.3,0.1c0,0,0,0,0,0
		c0.1,0,0.2,0.1,0.3,0.2c0.1,0,0.1,0.1,0.2,0.2c0.1,0.1,0.2,0.2,0.3,0.3c0,0,0.1,0.1,0.1,0.1c0.1,0.1,0.1,0.2,0.2,0.3c0,0,0,0,0,0
		c0,0.1,0.1,0.2,0.1,0.3c0,0,0,0,0,0.1c0,0.1,0,0.3,0,0.4S111.3,70.7,111.2,70.8z M71.8,32.9l-3.4,3.4v-4.8c0-0.8,0.5-1.5,1.2-1.8
		c0,0,0,0,0,0c0.1,0,0.2-0.1,0.3-0.1c0,0,0.1,0,0.1,0c0.1,0,0.2,0,0.3,0c0,0,0.1,0,0.1,0c0.1,0,0.1,0,0.2,0c0.1,0,0.2,0,0.2,0
		c0,0,0.1,0,0.1,0c0.1,0,0.2,0,0.2,0.1c0,0,0.1,0,0.1,0.1c0.1,0,0.2,0.1,0.2,0.1c0.1,0.1,0.2,0.1,0.2,0.2c0,0,0,0,0.1,0
		c0.1,0.1,0.2,0.2,0.2,0.3c0,0,0,0.1,0.1,0.1c0,0.1,0.1,0.1,0.1,0.2c0,0,0,0.1,0,0.1c0,0.1,0.1,0.2,0.1,0.3c0,0,0,0.1,0,0.1
		C72.5,31.8,72.3,32.5,71.8,32.9z M32.9,71.8c-0.8,0.8-2.1,0.8-2.8,0c-0.4-0.4-0.6-0.9-0.6-1.4s0.2-1,0.6-1.4l32.3-32.3v5.7
		L32.9,71.8z M72.4,40.8v21.6h-2c-0.7,0-1.4,0.1-2,0.3V44.8L72.4,40.8z M68.4,70.4c0-1.1,0.9-2,2-2h2v2c0,1.1-0.9,2-2,2
		S68.4,71.5,68.4,70.4z M78.1,72.4c0.2-0.6,0.3-1.3,0.3-2v-2H100l-4,4H78.1z M71.8,110.7c-0.8,0.8-2.1,0.8-2.8,0
		c-0.8-0.8-0.8-2,0-2.8l29.5-29.5h5.7L71.8,110.7z"/>
</g>
</svg>
