<?xml version="1.0" encoding="utf-8"?>
<!-- Generator: Adobe Illustrator 17.1.0, SVG Export Plug-In . SVG Version: 6.00 Build 0)  -->
<!DOCTYPE svg PUBLIC "-//W3C//DTD SVG 1.1//EN" "http://www.w3.org/Graphics/SVG/1.1/DTD/svg11.dtd">
<svg version="1.1" id="Layer_1" xmlns="http://www.w3.org/2000/svg" xmlns:xlink="http://www.w3.org/1999/xlink" x="0px" y="0px"
	 viewBox="0 0 141 141" enable-background="new 0 0 141 141" xml:space="preserve">
<g>
	<path fill="#FFFFFF" d="M137.567,62.619L78.169,3.222C76.092,1.144,73.329,0,70.392,0c-2.938,0-5.701,1.144-7.778,3.222
		L3.216,62.619c-4.288,4.289-4.288,11.267,0,15.556l59.397,59.396c2.077,2.078,4.84,3.222,7.778,3.222
		c2.938,0,5.7-1.144,7.777-3.222l59.398-59.396C141.855,73.886,141.855,66.908,137.567,62.619z M133.324,73.933L73.927,133.33
		c-0.944,0.944-2.2,1.464-3.535,1.464c-1.336,0-2.592-0.52-3.536-1.464L7.459,73.933c-1.95-1.95-1.95-5.122-0.001-7.071
		L66.856,7.464C67.8,6.52,69.056,6,70.392,6c1.335,0,2.591,0.52,3.535,1.464l59.397,59.397
		C135.274,68.811,135.274,71.983,133.324,73.933z"/>
	<path fill="#FFFFFF" d="M117.225,71.322c0.004-0.038,0.013-0.076,0.017-0.114c0.027-0.268,0.041-0.538,0.041-0.811
		c0-0.273-0.014-0.543-0.041-0.811c-0.004-0.039-0.013-0.077-0.017-0.116c-0.026-0.229-0.059-0.457-0.104-0.682
		c-0.001-0.006-0.003-0.012-0.005-0.018c-0.312-1.516-1.056-2.91-2.176-4.029c-1.118-1.119-2.511-1.863-4.025-2.176
		c-0.008-0.002-0.016-0.004-0.024-0.006c-0.224-0.046-0.452-0.078-0.682-0.104c-0.039-0.005-0.077-0.013-0.116-0.017
		c-0.268-0.027-0.538-0.041-0.811-0.041H78.392V31.506c0-0.747-0.111-1.468-0.303-2.154c-0.013-0.048-0.023-0.096-0.037-0.143
		c-0.05-0.165-0.11-0.326-0.17-0.486c-0.033-0.09-0.062-0.18-0.099-0.269c-0.05-0.12-0.108-0.235-0.163-0.352
		c-0.058-0.125-0.114-0.25-0.179-0.372c-0.042-0.077-0.089-0.151-0.134-0.226c-0.089-0.154-0.178-0.308-0.278-0.457
		c-0.022-0.033-0.047-0.063-0.07-0.095c-0.268-0.386-0.567-0.757-0.911-1.101c-1.097-1.096-2.456-1.829-3.935-2.152
		c-0.04-0.009-0.079-0.022-0.12-0.03c-0.184-0.037-0.37-0.061-0.557-0.085c-0.08-0.011-0.159-0.027-0.24-0.035
		c-0.175-0.017-0.354-0.021-0.531-0.027c-0.091-0.003-0.181-0.014-0.273-0.014c-0.076,0-0.151,0.009-0.227,0.011
		c-0.194,0.005-0.388,0.01-0.58,0.029c-0.066,0.007-0.129,0.021-0.195,0.029c-0.203,0.025-0.405,0.052-0.604,0.092
		c-0.025,0.005-0.049,0.013-0.074,0.018c-1.496,0.318-2.871,1.056-3.979,2.163L25.844,64.74c-1.512,1.511-2.344,3.521-2.344,5.657
		s0.832,4.146,2.343,5.656c1.511,1.512,3.521,2.344,5.657,2.344s4.146-0.832,5.657-2.344l25.234-25.234v19.578c0,4.411,3.589,8,8,8
		h19.577l-25.234,25.234c-3.119,3.118-3.119,8.193,0,11.314c1.512,1.51,3.521,2.342,5.657,2.342c2.136,0,4.145-0.832,5.656-2.343
		l38.891-38.891c1.121-1.121,1.866-2.516,2.178-4.034c0.001-0.005,0.003-0.009,0.004-0.014
		C117.166,71.781,117.198,71.552,117.225,71.322z M111.242,70.797c-0.005,0.022-0.014,0.042-0.019,0.064
		c-0.026,0.107-0.055,0.213-0.097,0.312c-0.004,0.009-0.01,0.018-0.014,0.027c-0.31,0.703-1.012,1.196-1.828,1.196h-4.829
		l3.414-3.414c0.378-0.378,0.881-0.586,1.415-0.586c0.137,0,0.271,0.014,0.4,0.04c0.022,0.005,0.043,0.015,0.065,0.02
		c0.106,0.026,0.212,0.055,0.311,0.097c0.016,0.007,0.031,0.018,0.047,0.025c0.102,0.046,0.202,0.097,0.294,0.16
		c0.065,0.044,0.123,0.099,0.183,0.151c0.096,0.083,0.184,0.174,0.263,0.274c0.031,0.039,0.068,0.075,0.096,0.117
		c0.064,0.095,0.117,0.197,0.165,0.303c0.006,0.013,0.015,0.024,0.02,0.037c0.042,0.099,0.071,0.205,0.097,0.311
		c0.005,0.022,0.015,0.043,0.02,0.065c0.026,0.129,0.04,0.263,0.04,0.4S111.268,70.668,111.242,70.797z M71.806,32.92l-3.414,3.414
		v-4.829c0-0.815,0.492-1.515,1.193-1.826c0.011-0.005,0.02-0.012,0.031-0.016c0.092-0.039,0.189-0.064,0.287-0.089
		c0.031-0.008,0.059-0.021,0.09-0.027c0.093-0.019,0.19-0.023,0.287-0.029c0.037-0.002,0.074-0.011,0.111-0.011
		c0.055,0,0.107,0.011,0.161,0.016c0.08,0.006,0.16,0.008,0.237,0.024c0.047,0.009,0.092,0.029,0.138,0.042
		c0.081,0.023,0.163,0.042,0.239,0.074c0.036,0.015,0.068,0.038,0.103,0.055c0.081,0.04,0.164,0.079,0.239,0.13
		c0.086,0.058,0.166,0.128,0.244,0.201c0.017,0.016,0.038,0.028,0.054,0.045c0.095,0.095,0.178,0.198,0.25,0.306
		c0.026,0.039,0.043,0.082,0.067,0.122c0.042,0.074,0.086,0.147,0.118,0.225c0.016,0.038,0.024,0.08,0.037,0.119
		c0.029,0.085,0.059,0.17,0.076,0.258c0.005,0.026,0.004,0.054,0.008,0.081C72.454,31.811,72.273,32.453,71.806,32.92z
		 M32.915,71.811c-0.756,0.756-2.073,0.757-2.829-0.001c-0.378-0.377-0.586-0.879-0.586-1.413s0.208-1.036,0.586-1.414
		l32.306-32.306v5.657L32.915,71.811z M72.392,40.819v21.578h-2c-0.692,0-1.359,0.097-2,0.263V44.819L72.392,40.819z M68.392,70.397
		c0-1.103,0.897-2,2-2h2v2c0,1.103-0.897,2-2,2S68.392,71.5,68.392,70.397z M78.129,72.397c0.166-0.641,0.263-1.308,0.263-2v-2
		h21.577l-4,4H78.129z M71.806,110.702c-0.756,0.757-2.074,0.754-2.828,0.001c-0.78-0.78-0.78-2.049-0.001-2.829l29.477-29.477
		h5.657L71.806,110.702z"/>
</g>
</svg>
