<?xml version="1.0" encoding="utf-8"?>
<!-- Generator: Adobe Illustrator 18.0.0, SVG Export Plug-In . SVG Version: 6.00 Build 0)  -->
<!DOCTYPE svg PUBLIC "-//W3C//DTD SVG 1.1//EN" "http://www.w3.org/Graphics/SVG/1.1/DTD/svg11.dtd">
<svg version="1.1" id="Layer_1" xmlns="http://www.w3.org/2000/svg" xmlns:xlink="http://www.w3.org/1999/xlink" x="0px" y="0px"
	 viewBox="0 0 26 21" enable-background="new 0 0 26 21" xml:space="preserve">
<path fill="#999999" d="M24.5,3h-23C0.7,3,0,2.3,0,1.5v0C0,0.7,0.7,0,1.5,0l23,0C25.3,0,26,0.7,26,1.5v0C26,2.3,25.3,3,24.5,3z"/>
<path fill="#999999" d="M24.5,12h-23C0.7,12,0,11.3,0,10.5v0C0,9.7,0.7,9,1.5,9h23c0.8,0,1.5,0.7,1.5,1.5v0C26,11.3,25.3,12,24.5,12
	z"/>
<path fill="#999999" d="M24.5,21h-23C0.7,21,0,20.3,0,19.5v0C0,18.7,0.7,18,1.5,18h23c0.8,0,1.5,0.7,1.5,1.5v0
	C26,20.3,25.3,21,24.5,21z"/>
</svg>
