<?xml version="1.0" encoding="utf-8"?>
<!-- Generator: Adobe Illustrator 17.1.0, SVG Export Plug-In . SVG Version: 6.00 Build 0)  -->
<!DOCTYPE svg PUBLIC "-//W3C//DTD SVG 1.1//EN" "http://www.w3.org/Graphics/SVG/1.1/DTD/svg11.dtd">
<svg version="1.1" id="Layer_1" xmlns="http://www.w3.org/2000/svg" xmlns:xlink="http://www.w3.org/1999/xlink" x="0px" y="0px"
	 viewBox="0 0 48 48" enable-background="new 0 0 48 48" xml:space="preserve">
<path fill="#E4E4E4" d="M24,0C10.745,0,0,10.745,0,24s10.745,24,24,24s24-10.745,24-24S37.255,0,24,0z M31.912,25.392L21.6,32.266
	c-1.112,0.741-2.6-0.056-2.6-1.392V24v-6.875c0-1.336,1.489-2.133,2.6-1.392l10.312,6.875C32.906,23.27,32.906,24.73,31.912,25.392z
	"/>
<circle fill="#E4E4E4" cx="-99" cy="19" r="24"/>
<path fill="#FFFFFF" d="M-101.4,27.266c-1.112,0.741-2.6-0.056-2.6-1.392V19v-6.875c0-1.336,1.489-2.133,2.6-1.392l10.312,6.875
	c0.993,0.662,0.993,2.121,0,2.783L-101.4,27.266z"/>
</svg>
