<?xml version="1.0" encoding="utf-8"?>
<!-- Generator: Adobe Illustrator 17.1.0, SVG Export Plug-In . SVG Version: 6.00 Build 0)  -->
<!DOCTYPE svg PUBLIC "-//W3C//DTD SVG 1.1//EN" "http://www.w3.org/Graphics/SVG/1.1/DTD/svg11.dtd">
<svg version="1.1" id="Layer_1" xmlns="http://www.w3.org/2000/svg" xmlns:xlink="http://www.w3.org/1999/xlink" x="0px" y="0px"
	 viewBox="0 0 45.333 45.333" enable-background="new 0 0 45.333 45.333" xml:space="preserve">
<g>
	<path fill="#FFFFFF" d="M1.362,21.552c-0.034,0-0.067-0.001-0.102-0.005C0.711,21.491,0.31,21,0.366,20.451
		c0.076-0.746,0.19-1.498,0.341-2.234c0.149-0.73,0.336-1.456,0.554-2.157c0.217-0.697,0.472-1.393,0.757-2.068
		c0.282-0.668,0.601-1.33,0.947-1.967c0.345-0.634,0.724-1.258,1.127-1.855c0.402-0.594,0.837-1.177,1.294-1.731
		C5.845,7.884,6.333,7.347,6.84,6.84c0.507-0.507,1.045-0.996,1.597-1.452c0.555-0.458,1.137-0.893,1.732-1.295
		c0.598-0.404,1.222-0.783,1.854-1.127c0.642-0.349,1.304-0.667,1.967-0.948c0.676-0.286,1.372-0.541,2.069-0.757
		c0.707-0.22,1.433-0.407,2.157-0.555c0.729-0.149,1.481-0.264,2.233-0.341c0.55-0.063,1.04,0.344,1.096,0.893
		c0.056,0.55-0.344,1.041-0.893,1.096c-0.686,0.07-1.371,0.175-2.035,0.311c-0.66,0.135-1.32,0.305-1.965,0.505
		C16.019,3.369,15.386,3.6,14.771,3.86c-0.604,0.256-1.208,0.546-1.792,0.863c-0.576,0.313-1.145,0.659-1.69,1.027
		c-0.542,0.366-1.073,0.763-1.578,1.18C9.207,7.347,8.716,7.792,8.254,8.254C7.792,8.716,7.347,9.207,6.93,9.711
		c-0.417,0.505-0.813,1.036-1.18,1.578c-0.368,0.544-0.713,1.113-1.027,1.691c-0.315,0.58-0.606,1.183-0.863,1.792
		c-0.26,0.615-0.492,1.248-0.689,1.882c-0.199,0.639-0.369,1.3-0.505,1.965c-0.137,0.67-0.241,1.354-0.31,2.035
		C2.304,21.168,1.869,21.552,1.362,21.552z"/>
</g>
<g>
	<path fill="#FFFFFF" d="M20.553,45.139c-0.034,0-0.068-0.001-0.103-0.005c-0.752-0.077-1.504-0.191-2.234-0.341
		c-0.723-0.147-1.449-0.334-2.156-0.554c-0.696-0.216-1.393-0.471-2.068-0.757c-0.664-0.281-1.325-0.599-1.967-0.947
		c-0.633-0.345-1.257-0.724-1.855-1.127c-0.595-0.402-1.178-0.837-1.732-1.295c-0.552-0.456-1.09-0.944-1.597-1.452
		c-0.507-0.507-0.995-1.044-1.452-1.597c-0.458-0.555-0.893-1.137-1.295-1.732c-0.404-0.597-0.783-1.221-1.127-1.855
		c-0.346-0.638-0.665-1.299-0.947-1.967c-0.286-0.675-0.541-1.371-0.757-2.068c-0.218-0.702-0.405-1.427-0.554-2.156
		c-0.151-0.737-0.266-1.489-0.341-2.235C0.31,24.5,0.711,24.009,1.26,23.953c0.561-0.048,1.041,0.345,1.096,0.894
		c0.069,0.68,0.173,1.365,0.31,2.036c0.136,0.664,0.306,1.325,0.505,1.964c0.197,0.634,0.429,1.268,0.689,1.882
		c0.257,0.608,0.548,1.211,0.863,1.792c0.313,0.578,0.659,1.146,1.027,1.69c0.366,0.542,0.763,1.073,1.18,1.578
		c0.416,0.504,0.861,0.995,1.323,1.457c0.462,0.462,0.953,0.908,1.457,1.323c0.505,0.417,1.036,0.814,1.578,1.181
		c0.545,0.368,1.114,0.713,1.69,1.027c0.584,0.316,1.187,0.607,1.792,0.863c0.615,0.26,1.249,0.492,1.882,0.688
		c0.645,0.201,1.306,0.371,1.964,0.505c0.666,0.137,1.351,0.241,2.036,0.312c0.549,0.056,0.949,0.546,0.893,1.096
		C21.494,44.755,21.06,45.139,20.553,45.139z"/>
</g>
<g>
	<path fill="#FFFFFF" d="M24.947,45.139c-0.507,0-0.941-0.383-0.994-0.898c-0.056-0.549,0.344-1.041,0.893-1.096
		c0.685-0.07,1.37-0.175,2.036-0.311c0.661-0.135,1.321-0.305,1.963-0.505c0.635-0.197,1.268-0.429,1.883-0.689
		c0.604-0.256,1.208-0.546,1.792-0.863c0.574-0.312,1.143-0.658,1.69-1.027c0.542-0.366,1.073-0.763,1.578-1.18
		c0.504-0.416,0.994-0.861,1.457-1.324c0.464-0.465,0.91-0.955,1.323-1.456c0.417-0.504,0.813-1.036,1.181-1.579
		c0.367-0.545,0.713-1.114,1.026-1.69c0.315-0.58,0.606-1.183,0.863-1.792c0.26-0.615,0.492-1.248,0.689-1.882
		c0.2-0.644,0.37-1.304,0.505-1.964c0.137-0.671,0.241-1.355,0.31-2.036c0.056-0.549,0.541-0.948,1.096-0.894
		c0.549,0.056,0.95,0.546,0.894,1.096c-0.076,0.746-0.19,1.498-0.341,2.234c-0.148,0.725-0.334,1.451-0.554,2.157
		c-0.217,0.697-0.472,1.393-0.757,2.068c-0.282,0.668-0.601,1.33-0.947,1.967c-0.344,0.632-0.723,1.256-1.126,1.855
		c-0.404,0.596-0.839,1.179-1.295,1.731c-0.454,0.55-0.942,1.088-1.452,1.598c-0.507,0.507-1.045,0.996-1.597,1.452
		c-0.554,0.457-1.137,0.893-1.732,1.295c-0.6,0.405-1.224,0.784-1.854,1.127c-0.642,0.348-1.304,0.667-1.967,0.947
		c-0.676,0.286-1.372,0.541-2.069,0.757c-0.705,0.22-1.431,0.406-2.156,0.554c-0.73,0.15-1.482,0.265-2.233,0.341
		C25.015,45.138,24.981,45.139,24.947,45.139z"/>
</g>
<g>
	<path fill="#FFFFFF" d="M44.138,21.552c-0.507,0-0.942-0.384-0.994-0.899c-0.069-0.68-0.173-1.365-0.31-2.036
		c-0.135-0.66-0.305-1.32-0.505-1.964c-0.197-0.634-0.429-1.268-0.689-1.882c-0.257-0.608-0.548-1.211-0.863-1.792
		c-0.313-0.577-0.659-1.146-1.027-1.691c-0.367-0.542-0.764-1.074-1.18-1.578c-0.414-0.502-0.859-0.992-1.323-1.457
		c-0.462-0.462-0.953-0.908-1.456-1.323c-0.505-0.417-1.036-0.814-1.579-1.18c-0.547-0.37-1.116-0.715-1.69-1.027
		c-0.584-0.317-1.187-0.607-1.792-0.863c-0.615-0.26-1.249-0.492-1.882-0.688c-0.644-0.2-1.304-0.37-1.964-0.505
		c-0.666-0.136-1.351-0.241-2.036-0.311c-0.549-0.056-0.949-0.547-0.893-1.096c0.056-0.549,0.542-0.955,1.096-0.893
		c0.751,0.077,1.503,0.191,2.234,0.341c0.725,0.148,1.451,0.334,2.157,0.555c0.696,0.216,1.392,0.47,2.068,0.756
		c0.664,0.281,1.325,0.599,1.967,0.947c0.631,0.343,1.255,0.722,1.855,1.127c0.596,0.402,1.179,0.838,1.732,1.295
		c0.552,0.456,1.09,0.944,1.597,1.452c0.51,0.51,0.999,1.047,1.452,1.598c0.456,0.553,0.892,1.135,1.294,1.731
		c0.405,0.599,0.784,1.223,1.127,1.855c0.346,0.638,0.665,1.299,0.947,1.967c0.286,0.675,0.541,1.371,0.757,2.068
		c0.22,0.707,0.406,1.432,0.554,2.157c0.151,0.736,0.266,1.488,0.341,2.234c0.056,0.55-0.345,1.041-0.894,1.096
		C44.205,21.55,44.172,21.552,44.138,21.552z"/>
</g>
<g>
	<path fill="#FFFFFF" d="M33.416,27.38c0,0-0.034,0.097-0.099,0.278c-0.071,0.181-0.144,0.449-0.296,0.784
		c-0.18,0.33-0.365,0.783-0.656,1.218c-0.143,0.221-0.287,0.466-0.459,0.709c-0.187,0.232-0.384,0.477-0.589,0.731
		c-0.222,0.231-0.453,0.472-0.693,0.721c-0.219,0.236-0.558,0.476-0.85,0.723c-0.615,0.476-1.283,0.902-2.041,1.259
		c-0.112,0.052-0.143,0.084-0.323,0.152l-0.27,0.107l-0.546,0.216c-0.376,0.144-0.85,0.254-1.282,0.37
		c-0.437,0.088-0.871,0.146-1.311,0.217c-0.463,0.023-0.841,0.063-1.379,0.066c-0.416-0.032-0.795-0.034-1.239-0.091
		c-0.451-0.078-0.928-0.123-1.348-0.241c-0.859-0.207-1.652-0.504-2.42-0.889c-0.644-0.307-1.43-0.811-1.994-1.278
		c-0.607-0.466-1.081-0.966-1.535-1.489c-0.19-0.243-0.378-0.461-0.545-0.696c-0.163-0.258-0.318-0.503-0.463-0.733
		c-0.284-0.458-0.453-0.878-0.628-1.209c-0.27-0.702-0.394-1.105-0.394-1.105l0.688-0.293c0,0,0.215,0.331,0.59,0.91
		c0.214,0.266,0.441,0.624,0.753,0.961c0.153,0.167,0.317,0.345,0.489,0.532c0.201,0.192,0.413,0.394,0.634,0.605
		c0.402,0.346,0.905,0.753,1.445,1.093c0.266,0.194,0.55,0.334,0.833,0.485c0.26,0.154,0.617,0.308,0.968,0.462
		c0.613,0.271,1.33,0.467,2.034,0.626c0.356,0.093,0.692,0.105,1.04,0.168c0.362,0.043,0.801,0.039,1.199,0.061l1.062-0.041
		c0.362-0.056,0.733-0.098,1.084-0.161c0.342-0.097,0.653-0.14,1.02-0.251l0.557-0.185l0.275-0.092
		c0.004,0.007,0.139-0.06,0.201-0.086c0.638-0.269,1.257-0.582,1.785-0.915c0.259-0.184,0.504-0.308,0.764-0.525
		c0.246-0.197,0.484-0.387,0.713-0.569c0.416-0.388,0.801-0.749,1.108-1.105c0.333-0.341,0.535-0.672,0.754-0.933
		c0.395-0.597,0.62-0.937,0.62-0.937L33.416,27.38z"/>
</g>
<g>
	<path fill="#FFFFFF" d="M34.659,27.254c0,0-0.021,0.058-0.068,0.147c-0.031,0.045-0.038,0.094-0.104,0.161
		c-0.059,0.067-0.134,0.144-0.227,0.217c-0.084,0.048-0.174,0.101-0.27,0.156c-0.145,0.04-0.243,0.091-0.492,0.093
		c-0.117-0.014-0.176,0.02-0.349-0.034l-0.248-0.082c-0.057-0.027-0.047-0.005-0.157-0.075l-0.069-0.044
		c-0.085-0.061-0.173-0.118-0.299-0.254c-0.058-0.057-0.11-0.119-0.158-0.181c-0.08-0.12-0.063-0.114-0.099-0.176
		c-0.047-0.078-0.089-0.19-0.127-0.325c-0.017-0.061-0.033-0.12-0.049-0.178c-0.035-0.122-0.01-0.11-0.018-0.17
		c-0.008-0.156,0.022-0.325,0.046-0.447c0.024-0.116,0.048-0.176,0.048-0.176l0.352,0.001c0,0,0.033,0.049,0.072,0.123
		c0.025,0.069,0.094,0.17,0.178,0.329c0.016,0.019,0.046,0.118,0.053,0.075c0.023,0.023,0.04,0.049,0.059,0.073
		c0.025,0.042,0.077,0.103,0.152,0.191c0.021,0.023,0.092,0.118,0.073,0.083c0.025,0.014,0.048,0.028,0.065,0.048
		c0.012,0.032,0.107,0.093,0.207,0.15l0.067,0.047c-0.067-0.034-0.001-0.005-0.008-0.009c0.019,0.008,0.037,0.018,0.055,0.032
		c0.026,0.029,0.187,0.048,0.27,0.072c-0.046-0.006,0.053,0.015,0.092,0.031c0.075-0.012,0.222-0.046,0.227-0.023
		c0.046-0.014,0.099-0.016,0.152-0.02c0.051,0.003,0.115-0.047,0.157-0.061c0.092-0.042,0.151-0.059,0.151-0.059L34.659,27.254z"/>
</g>
<g>
	<path fill="#FFFFFF" d="M11.141,26.969c0,0,0.059,0.017,0.151,0.059c0.043,0.014,0.106,0.064,0.157,0.061
		c0.053,0.003,0.106,0.006,0.152,0.02c0.005-0.023,0.152,0.011,0.227,0.023c0.039-0.015,0.139-0.036,0.092-0.031
		c0.083-0.024,0.243-0.042,0.27-0.072c0.018-0.014,0.036-0.025,0.055-0.032c-0.008,0.004,0.059-0.025-0.008,0.009l0.067-0.047
		c0.099-0.057,0.194-0.119,0.207-0.15c0.017-0.02,0.039-0.034,0.065-0.048c-0.019,0.035,0.052-0.06,0.073-0.083
		c0.074-0.088,0.127-0.149,0.152-0.191c0.019-0.025,0.036-0.05,0.059-0.073c0.006,0.043,0.037-0.056,0.053-0.075
		c0.084-0.16,0.153-0.26,0.178-0.329c0.039-0.075,0.072-0.123,0.072-0.123l0.352-0.001c0,0,0.024,0.06,0.048,0.176
		c0.023,0.123,0.054,0.292,0.046,0.447c-0.008,0.059,0.017,0.048-0.018,0.17c-0.016,0.057-0.032,0.117-0.049,0.178
		c-0.039,0.135-0.08,0.248-0.127,0.325c-0.036,0.062-0.019,0.056-0.099,0.176c-0.048,0.062-0.1,0.124-0.158,0.181
		c-0.126,0.136-0.214,0.193-0.299,0.254l-0.069,0.044c-0.11,0.069-0.1,0.047-0.157,0.075l-0.248,0.082
		c-0.173,0.054-0.232,0.02-0.349,0.034c-0.249-0.002-0.347-0.053-0.492-0.093c-0.096-0.055-0.186-0.108-0.27-0.156
		c-0.093-0.073-0.167-0.15-0.227-0.217c-0.066-0.067-0.072-0.116-0.104-0.161c-0.047-0.089-0.068-0.147-0.068-0.147L11.141,26.969z"
		/>
</g>
<g>
	<ellipse fill="#FFFFFF" cx="15.47" cy="17.688" rx="2.47" ry="3.688"/>
</g>
<g>
	<ellipse fill="#FFFFFF" cx="30.405" cy="17.688" rx="2.47" ry="3.688"/>
</g>
<g>
	<circle fill="#FFFFFF" cx="15.458" cy="15.875" r="0.708"/>
</g>
</svg>
