<?xml version="1.0" encoding="utf-8"?>
<!-- Generator: Adobe Illustrator 17.1.0, SVG Export Plug-In . SVG Version: 6.00 Build 0)  -->
<!DOCTYPE svg PUBLIC "-//W3C//DTD SVG 1.1//EN" "http://www.w3.org/Graphics/SVG/1.1/DTD/svg11.dtd">
<svg version="1.1" id="Layer_1" xmlns="http://www.w3.org/2000/svg" xmlns:xlink="http://www.w3.org/1999/xlink" x="0px" y="0px"
	 viewBox="0 0 46.2 46.2" style="enable-background:new 0 0 46.2 46.2;" xml:space="preserve">
<path style="fill:#FFFFFF;" d="M23,0.5C10.5,0.5,0.2,10.7,0.2,23.2S10.5,46,23,46s22.8-10.2,22.8-22.8S35.5,0.5,23,0.5z M15.2,14.6
	c1.4,0,2.5,1.7,2.5,3.7c0,0.4,0,0.8-0.1,1.2c-0.1,0.3-0.4,0.6-0.7,0.5c-0.6-0.1-1.2-0.1-1.9,0.1c-0.4,0.1-0.7,0.2-1,0.4
	c-0.4,0.2-0.8,0-0.9-0.3c-0.2-0.5-0.3-1.1-0.3-1.8C12.7,16.3,13.8,14.6,15.2,14.6z M19.8,30.2c0-2.4,1.4-3.7,3.2-3.7
	s3.2,1.3,3.2,3.7c0,2.4-1.4,4.3-3.2,4.3S19.8,32.6,19.8,30.2z M32.9,20.2c-0.1,0.4-0.6,0.5-0.9,0.3c-0.3-0.2-0.7-0.4-1.2-0.5
	c-0.6-0.1-1.1-0.2-1.7-0.1c-0.3,0-0.6-0.2-0.7-0.5c-0.1-0.4-0.1-0.7-0.1-1.1c0-2,1.1-3.7,2.5-3.7c1.4,0,2.5,1.7,2.5,3.7
	C33.3,19,33.1,19.7,32.9,20.2z"/>
</svg>
